<svg xmlns="http://www.w3.org/2000/svg" viewBox="0 0 667.14 374.37"><defs><style>.cls-1{isolation:isolate;}.cls-11,.cls-2{fill:#fff;}.cls-3{fill:#f7b11e;}.cls-4{fill:#fdeb48;}.cls-5{fill:#fed137;}.cls-6{fill:#f26d24;}.cls-7{fill:#d72626;}.cls-8{fill:#99c817;}.cls-9{fill:#919191;mix-blend-mode:color-burn;}.cls-10{fill:#303030;}.cls-11{mix-blend-mode:soft-light;}</style></defs><g class="cls-1"><g id="Layer_2" data-name="Layer 2"><g id="Layer_1-2" data-name="Layer 1"><path class="cls-2" d="M622.49,166.76A333.57,333.57,0,0,0,0,333.57H119a214.62,214.62,0,0,1,429.24,0H667.14A332,332,0,0,0,622.49,166.76Z"/><path class="cls-3" d="M440.87,147.72,500.38,44.65A332,332,0,0,0,333.57,0V119A213.63,213.63,0,0,1,440.87,147.72Z"/><path class="cls-4" d="M226.27,147.72,166.76,44.65A335.19,335.19,0,0,0,44.65,166.76l103.07,59.51A215.79,215.79,0,0,1,226.27,147.72Z"/><path class="cls-5" d="M333.57,119V0A332,332,0,0,0,166.76,44.65l59.51,103.07A213.66,213.66,0,0,1,333.57,119Z"/><path class="cls-6" d="M519.42,226.27l103.07-59.51A335.19,335.19,0,0,0,500.38,44.65L440.87,147.72A215.71,215.71,0,0,1,519.42,226.27Z"/><path class="cls-7" d="M548.19,333.57H667.14a332,332,0,0,0-44.65-166.81L519.42,226.27A213.56,213.56,0,0,1,548.19,333.57Z"/><path class="cls-8" d="M119,333.57a213.66,213.66,0,0,1,28.77-107.3L44.65,166.76A332,332,0,0,0,0,333.57H119Z"/><path class="cls-9" d="M541.45,214.42A240.06,240.06,0,0,0,93.52,333.57H119a214.62,214.62,0,0,1,429.24,0h25.43A239,239,0,0,0,541.45,214.42Z"/><polygon class="cls-10" points="72.61 263.38 328.55 351.38 338.25 315.15 72.61 263.38"/><circle class="cls-10" cx="333.57" cy="333.54" r="40.83"/><circle class="cls-2" cx="333.57" cy="333.54" r="29.02"/><circle class="cls-10" cx="333.57" cy="333.54" r="20.36"/><path class="cls-11" d="M44.65,180.14a333.62,333.62,0,0,1,577.84,0,331.72,331.72,0,0,1,44.36,153.43h.29A333.57,333.57,0,1,0,0,333.57H.29A331.72,331.72,0,0,1,44.65,180.14Z"/></g></g></g></svg>