<svg xmlns="http://www.w3.org/2000/svg" xmlns:xlink="http://www.w3.org/1999/xlink" viewBox="0 0 104.67 107.07"><defs><style>.cls-1{fill:none;}.cls-2{isolation:isolate;}.cls-3{fill:#f4824e;}.cls-4{clip-path:url(#clip-path);}.cls-5{fill:#fabb9f;}.cls-6{fill:#e6e7e8;}.cls-11,.cls-6{mix-blend-mode:multiply;}.cls-7{fill:#dca68e;}.cls-8{fill:#fff;}.cls-9{fill:#3c0000;}.cls-10{fill:#14b9aa;}.cls-11{fill:#d0d2d3;}.cls-12{fill:#260000;}.cls-13{fill:#e2e3e4;}.cls-14{fill:#140000;}.cls-15{fill:#1e0500;}</style><clipPath id="clip-path" transform="translate(-2.88 -2.96)"><circle class="cls-1" cx="55.21" cy="55.29" r="52.33" transform="translate(-22.92 55.24) rotate(-45)"/></clipPath></defs><g class="cls-2"><g id="Layer_1" data-name="Layer 1"><circle class="cls-3" cx="55.21" cy="55.29" r="52.33" transform="translate(-25.8 52.28) rotate(-45)"/><g class="cls-4"><rect class="cls-5" x="42.31" y="69.56" width="20.04" height="13.5"/><path class="cls-6" d="M50.05,82.29a27.22,27.22,0,0,0,9.59,1.95,30.88,30.88,0,0,0,5.59-.55V72.52h-20v7A16.93,16.93,0,0,0,50.05,82.29Z" transform="translate(-2.88 -2.96)"/><path class="cls-5" d="M76.14,47.51C76.2,47,77,46.22,77.37,46c.8-.6,1.6,0,1.83.8A9.7,9.7,0,0,1,79.47,49a9.83,9.83,0,0,1-.92,5.1,6.74,6.74,0,0,1-2.3,2.61A.81.81,0,0,1,75,56S76.13,47.52,76.14,47.51Z" transform="translate(-2.88 -2.96)"/><path class="cls-7" d="M76,48.58a2.69,2.69,0,0,1,.88-1.12c.57-.43,1.15,0,1.31.57a7.69,7.69,0,0,1,.2,1.59,7.06,7.06,0,0,1-.66,3.65,4.77,4.77,0,0,1-1.65,1.86.58.58,0,0,1-.89-.49Z" transform="translate(-2.88 -2.96)"/><path class="cls-5" d="M33.78,47.51A3.71,3.71,0,0,0,32.54,46c-.79-.6-1.59,0-1.82.8A10.3,10.3,0,0,0,30.44,49a9.93,9.93,0,0,0,.92,5.1,6.82,6.82,0,0,0,2.3,2.61A.82.82,0,0,0,34.91,56S33.78,47.52,33.78,47.51Z" transform="translate(-2.88 -2.96)"/><path class="cls-7" d="M33.94,48.58c0-.35-.62-.93-.88-1.12-.57-.43-1.14,0-1.31.57a7.68,7.68,0,0,0-.19,1.59,7.16,7.16,0,0,0,.65,3.65,4.94,4.94,0,0,0,1.65,1.86.58.58,0,0,0,.89-.49S34,48.58,33.94,48.58Z" transform="translate(-2.88 -2.96)"/><path class="cls-5" d="M76.77,49.11a34.13,34.13,0,0,1-3.52,16.07A31.63,31.63,0,0,1,64,75.5c-2.94,2.2-6.09,4.75-9.81,4.44-3.88-.32-6.9-3.71-9.74-6.35a34.62,34.62,0,0,1-9.07-13.76,32.55,32.55,0,0,1-1.74-10.72c0-18.07,9.65-29.43,21.56-29.43S76.77,31,76.77,49.11Z" transform="translate(-2.88 -2.96)"/><path class="cls-5" d="M90.21,92.13l-25-6.53h-20l-25,6.53A21.42,21.42,0,0,0,7.36,110h95.71A21.44,21.44,0,0,0,90.21,92.13Z" transform="translate(-2.88 -2.96)"/><path class="cls-8" d="M90.21,92.13l-25-6.53h-20l-25,6.53A21.42,21.42,0,0,0,7.36,110h95.71A21.44,21.44,0,0,0,90.21,92.13Z" transform="translate(-2.88 -2.96)"/><path class="cls-9" d="M90.21,92.13,71.73,87.3,55.21,110,38.88,87.25,20.22,92.13A21.42,21.42,0,0,0,7.36,110h95.71A21.44,21.44,0,0,0,90.21,92.13Z" transform="translate(-2.88 -2.96)"/><polygon class="cls-10" points="50.14 95.66 45.54 107.03 58.62 107.03 54.13 95.66 50.14 95.66"/><polygon class="cls-10" points="52.03 82.86 46.17 90.72 50.24 95.69 52.24 95.66 54.23 95.63 58.14 90.53 52.03 82.86"/><path class="cls-11" d="M58.83,92.65c-.75,1.48-2.15,3.17-4,2.75a3.25,3.25,0,0,1-2.4-4.16c.44-1.83,1.62-3.36,2.28-5.09l-5.62,7.53,4.07,5,4-.06L61,93.48l-1.65-2.07C59.21,91.83,59,92.25,58.83,92.65Z" transform="translate(-2.88 -2.96)"/><polygon class="cls-12" points="52.33 107.03 36 84.29 22.94 87.71 39.63 99.46 35.34 101.35 43.06 107.03 52.33 107.03"/><polygon class="cls-12" points="52.33 107.06 68.67 84.32 81.73 87.74 65.04 99.49 69.33 101.38 61.61 107.06 52.33 107.06"/><polygon class="cls-13" points="32.48 83.12 42.28 78.52 52.26 82.69 62.25 78.52 72.72 83.12 57.92 93.03 52.26 84.93 46.17 93.03 32.48 83.12"/><path class="cls-14" d="M67.84,72.24s5.41-5.12,6.61-9.64c0,0-6.39,5.76-8.62,5.15Z" transform="translate(-2.88 -2.96)"/><path class="cls-14" d="M44.09,73.77s-6.28-5.38-8-12.12c0,0,7.16,8.27,9.39,7.66Z" transform="translate(-2.88 -2.96)"/><path class="cls-15" d="M59,64.9a11.21,11.21,0,0,1,5.48,1.28c3.11,1.46,3.9,5.46,3.9,5.46a26.83,26.83,0,0,1-4.75,4C57.75,80.58,55,80,55,80a9.3,9.3,0,0,1-5.72-2.1l-5.53-4.33a7.56,7.56,0,0,1,3.6-7.35c2.58-1.26,3-1.09,3-1.09s3.86-.45,4.8,1.08c0,0,1-1.27,3.6-1.27" transform="translate(-2.88 -2.96)"/><path class="cls-5" d="M55.73,69a7.89,7.89,0,0,0-6,.09s5.36,5.68,11.44.07C61.21,69.12,58,67.6,55.73,69Z" transform="translate(-2.88 -2.96)"/><path class="cls-14" d="M77,22.46a10.53,10.53,0,0,0,4.33-9,11.92,11.92,0,0,1-7,3.51c4.29-2.57,2.16-7.93,2.16-7.93-1.34,3-7.3,4.72-7.3,4.72,2.89-1.93,1.09-6.33,1.09-6.33-2,3.43-8.06,4.93-8.06,4.93,4-2.25,4.39-5.46,4.39-5.46C63.07,10,53.42,11.53,53.42,11.53s-10.62,1-13.26,9.79c-7.77,1.12-7.85,14.26-7.31,21.35h0l.5,8.58h1.72a36.63,36.63,0,0,1,0-9.68h0a76.44,76.44,0,0,1,2.56-8c1.85-4,4.72-5.24,6.55-5.6l1.74-.13c7.61-1.12,9.85,4.28,9.85,4.28,1.18-3.1,5.16-3.85,5.16-3.85,11.57-1.55,13.23,7.61,13.23,7.61l1.3,5.82a39.51,39.51,0,0,1-.09,9.57h1.72l.49-8.58a4.2,4.2,0,0,0,0-.71C78.45,37.18,79.23,29.39,77,22.46Z" transform="translate(-2.88 -2.96)"/></g></g></g></svg>