<svg xmlns="http://www.w3.org/2000/svg" xmlns:xlink="http://www.w3.org/1999/xlink" viewBox="0 0 104.66 105.4"><defs><style>.cls-1{fill:none;}.cls-2{isolation:isolate;}.cls-3{fill:#14b9aa;}.cls-4{clip-path:url(#clip-path);}.cls-5{fill:#0c0000;}.cls-6{fill:#fabb9f;}.cls-7{fill:#e6e7e8;mix-blend-mode:multiply;}.cls-8{fill:#dca68e;}.cls-9{fill:#eb524f;}.cls-10{fill:#3b2314;}</style><clipPath id="clip-path" transform="translate(-2.95 -1.99)"><circle class="cls-1" cx="55.29" cy="54.32" r="52.33" transform="translate(-7.22 100.15) rotate(-80.74)"/></clipPath></defs><g class="cls-2"><g id="Layer_1" data-name="Layer 1"><circle class="cls-3" cx="55.29" cy="54.32" r="52.33" transform="translate(-10.17 98.16) rotate(-80.74)"/><g class="cls-4"><path class="cls-5" d="M31.34,49.91c-.3.43-1.2,36.83,5.2,44.28h36.2s9.88-27.94,3.15-44.28H31.12" transform="translate(-2.95 -1.99)"/><rect class="cls-6" x="42.89" y="67.93" width="20.04" height="13.5"/><path class="cls-7" d="M50.71,79.68a26.91,26.91,0,0,0,9.58,2,31.08,31.08,0,0,0,5.6-.55V69.92h-20v7A16.59,16.59,0,0,0,50.71,79.68Z" transform="translate(-2.95 -1.99)"/><path class="cls-6" d="M77.56,44.51c.07-.5.91-1.31,1.28-1.58.82-.61,1.65,0,1.89.81A10,10,0,0,1,81,46a9.89,9.89,0,0,1-1,5.17,6.87,6.87,0,0,1-2.38,2.64.85.85,0,0,1-1.29-.7S77.56,44.52,77.56,44.51Z" transform="translate(-2.95 -1.99)"/><path class="cls-8" d="M77.39,45.59c0-.36.65-.94.91-1.13a.87.87,0,0,1,1.36.58,7.15,7.15,0,0,1,.2,1.6,7.06,7.06,0,0,1-.68,3.7,5,5,0,0,1-1.71,1.89.61.61,0,0,1-.92-.5Z" transform="translate(-2.95 -1.99)"/><path class="cls-6" d="M33.66,44.51c-.07-.5-.91-1.31-1.28-1.58-.82-.61-1.65,0-1.89.81A10,10,0,0,0,30.2,46a9.89,9.89,0,0,0,1,5.17,6.87,6.87,0,0,0,2.38,2.64.85.85,0,0,0,1.29-.7S33.66,44.52,33.66,44.51Z" transform="translate(-2.95 -1.99)"/><path class="cls-8" d="M33.83,45.59c0-.36-.65-.94-.91-1.13a.87.87,0,0,0-1.36.58,7.78,7.78,0,0,0-.2,1.6,7.06,7.06,0,0,0,.68,3.7,5,5,0,0,0,1.71,1.89.61.61,0,0,0,.92-.5Z" transform="translate(-2.95 -1.99)"/><path class="cls-6" d="M78.22,46.12A34,34,0,0,1,74.57,62.4,32.4,32.4,0,0,1,65,72.85c-3,2.22-6.31,4.81-10.17,4.49-4-.33-7.15-3.76-10.09-6.43A35,35,0,0,1,35.32,57a32.11,32.11,0,0,1-1.81-10.86c0-18.28,10-29.79,22.35-29.79S78.22,27.84,78.22,46.12Z" transform="translate(-2.95 -1.99)"/><path class="cls-6" d="M86.36,89.53,64.6,83H47.13L25.37,89.53s-10.08,4.28-11.2,17.86H97.56C96.44,93.81,86.36,89.53,86.36,89.53Z" transform="translate(-2.95 -1.99)"/><path class="cls-9" d="M86.36,89.53l-12-3.61L55.86,104.36,37.35,85.93l-12,3.6s-10.08,4.28-11.2,17.86H97.56C96.44,93.81,86.36,89.53,86.36,89.53Z" transform="translate(-2.95 -1.99)"/><path class="cls-10" d="M40.7,23.6s10.76,17.07,37.45,20c0,0,5-19.45-13.72-28.9C64.43,14.67,50.06,8.74,40.7,23.6Z" transform="translate(-2.95 -1.99)"/><path class="cls-10" d="M43.46,27.05s-7,4.5-10,17.05c0,0-3.24-23.65,13.49-26.61Z" transform="translate(-2.95 -1.99)"/><path class="cls-10" d="M70.73,41.6s7.16,45.57-4.15,58.46c0,0,14.47-2.15,15.18-22.06,0,0,2.58-40.69-7.21-54.74Z" transform="translate(-2.95 -1.99)"/><path class="cls-10" d="M40.11,100.06S23.45,98.09,28,46.85c0,0,1.15-28.46,17.81-29.11l-1,10.8S35.3,31.39,36.54,53.9C36.54,53.9,35.56,90.18,40.11,100.06Z" transform="translate(-2.95 -1.99)"/></g></g></g></svg>