<svg xmlns="http://www.w3.org/2000/svg" viewBox="0 0 680 340"><defs><style>.cls-1{isolation:isolate;}.cls-2,.cls-9{fill:#fff;}.cls-3{fill:#99c817;}.cls-4{fill:#fdeb48;}.cls-5{fill:#ccd832;}.cls-6{fill:#f26d24;}.cls-7{fill:#d72626;}.cls-8{fill:#fed137;}.cls-9{mix-blend-mode:soft-light;}</style></defs><g class="cls-1"><g id="Layer_1" data-name="Layer 1"><path class="cls-2" d="M809,395.65a340,340,0,0,0-634.49,170H295.74a218.76,218.76,0,0,1,437.52,0H854.5A338.45,338.45,0,0,0,809,395.65Z" transform="translate(-174.5 -225.68)"/><path class="cls-3" d="M623.87,376.25l60.66-105.06a338.45,338.45,0,0,0-170-45.51V346.92A217.67,217.67,0,0,1,623.87,376.25Z" transform="translate(-174.5 -225.68)"/><path class="cls-4" d="M405.14,376.25,344.48,271.19A341.76,341.76,0,0,0,220,395.65l105.06,60.66A219.79,219.79,0,0,1,405.14,376.25Z" transform="translate(-174.5 -225.68)"/><path class="cls-5" d="M514.5,346.92V225.68a338.41,338.41,0,0,0-170,45.51l60.66,105.06A217.66,217.66,0,0,1,514.5,346.92Z" transform="translate(-174.5 -225.68)"/><path class="cls-6" d="M703.93,456.31,809,395.65A341.65,341.65,0,0,0,684.53,271.19L623.87,376.25A219.84,219.84,0,0,1,703.93,456.31Z" transform="translate(-174.5 -225.68)"/><path class="cls-7" d="M733.26,565.68H854.5a338.45,338.45,0,0,0-45.51-170L703.93,456.31A217.67,217.67,0,0,1,733.26,565.68Z" transform="translate(-174.5 -225.68)"/><path class="cls-8" d="M295.74,565.68a217.67,217.67,0,0,1,29.33-109.37L220,395.65a338.45,338.45,0,0,0-45.51,170H295.74Z" transform="translate(-174.5 -225.68)"/><path class="cls-9" d="M220,409.29a340.05,340.05,0,0,1,589,0,338.17,338.17,0,0,1,45.22,156.39h.29a340,340,0,1,0-680,0h.3A338.16,338.16,0,0,1,220,409.29Z" transform="translate(-174.5 -225.68)"/></g></g></svg>