<svg xmlns="http://www.w3.org/2000/svg" viewBox="0 0 667.14 333.57"><defs><style>.cls-1{isolation:isolate;}.cls-2,.cls-9{fill:#fff;}.cls-3{fill:#f7b11e;}.cls-4{fill:#99c817;}.cls-5{fill:#fed137;}.cls-6{fill:#f26d24;}.cls-7{fill:#d72626;}.cls-8{fill:#fdeb48;}.cls-9{mix-blend-mode:soft-light;}</style></defs><g class="cls-1"><g id="Layer_1" data-name="Layer 1"><path class="cls-2" d="M803.42,395.65A333.57,333.57,0,0,0,180.93,562.46h119a214.63,214.63,0,0,1,429.25,0H848.07A331.94,331.94,0,0,0,803.42,395.65Z" transform="translate(-180.93 -228.89)"/><path class="cls-3" d="M621.8,376.62l59.51-103.08A332,332,0,0,0,514.5,228.89v119A213.54,213.54,0,0,1,621.8,376.62Z" transform="translate(-180.93 -228.89)"/><path class="cls-4" d="M407.2,376.62,347.69,273.54A335.35,335.35,0,0,0,225.58,395.65l103.08,59.51A215.58,215.58,0,0,1,407.2,376.62Z" transform="translate(-180.93 -228.89)"/><path class="cls-5" d="M514.5,347.84V228.89a332,332,0,0,0-166.81,44.65L407.2,376.62A213.57,213.57,0,0,1,514.5,347.84Z" transform="translate(-180.93 -228.89)"/><path class="cls-6" d="M700.35,455.16l103.07-59.51A335.19,335.19,0,0,0,681.31,273.54L621.8,376.62A215.53,215.53,0,0,1,700.35,455.16Z" transform="translate(-180.93 -228.89)"/><path class="cls-7" d="M729.13,562.46H848.07a331.94,331.94,0,0,0-44.65-166.81L700.35,455.16A213.57,213.57,0,0,1,729.13,562.46Z" transform="translate(-180.93 -228.89)"/><path class="cls-8" d="M299.88,562.46a213.57,213.57,0,0,1,28.78-107.3L225.58,395.65a332,332,0,0,0-44.65,166.81h119Z" transform="translate(-180.93 -228.89)"/><path class="cls-9" d="M225.58,409a333.61,333.61,0,0,1,577.84,0,331.64,331.64,0,0,1,44.36,153.42h.29A333.64,333.64,0,0,0,347.69,273.54,333.44,333.44,0,0,0,180.93,562.46h.29A331.76,331.76,0,0,1,225.58,409Z" transform="translate(-180.93 -228.89)"/></g></g></svg>