<svg id="Layer_1" data-name="Layer 1" xmlns="http://www.w3.org/2000/svg" xmlns:xlink="http://www.w3.org/1999/xlink" viewBox="0 0 331.66 331.66"><defs><style>.cls-1,.cls-3{fill:#fcf8f3;}.cls-1{stroke:#6e7da2;stroke-miterlimit:10;stroke-width:2px;}.cls-2{fill:url(#linear-gradient);}.cls-4{fill:url(#linear-gradient-2);}.cls-5{fill:url(#linear-gradient-3);}.cls-6{fill:url(#linear-gradient-4);}.cls-7{fill:url(#linear-gradient-5);}</style><linearGradient id="linear-gradient" x1="123.37" y1="61.56" x2="197.7" y2="88.62" gradientTransform="matrix(1, 0, 0, -1, -55.01, 231.95)" gradientUnits="userSpaceOnUse"><stop offset="0" stop-color="#6b7ba2"/><stop offset="0.64" stop-color="#7182ab"/><stop offset="0.99" stop-color="#7687b3"/></linearGradient><linearGradient id="linear-gradient-2" x1="144.03" y1="49.81" x2="227.28" y2="80.11" gradientTransform="matrix(1, 0, 0, -1, -55.01, 231.95)" gradientUnits="userSpaceOnUse"><stop offset="0" stop-color="#6b7ba2"/><stop offset="0.64" stop-color="#7182ab"/><stop offset="1" stop-color="#7688b3"/></linearGradient><linearGradient id="linear-gradient-3" x1="185.27" y1="63.49" x2="349.77" y2="3.62" gradientTransform="matrix(1, 0, 0, -1, -55.01, 231.95)" gradientUnits="userSpaceOnUse"><stop offset="0" stop-color="#eda575"/><stop offset="1" stop-color="#e8a272"/></linearGradient><linearGradient id="linear-gradient-4" x1="279.37" y1="-0.64" x2="364.63" y2="30.39" xlink:href="#linear-gradient"/><linearGradient id="linear-gradient-5" x1="302.78" y1="-13.98" x2="398.1" y2="20.71" gradientTransform="matrix(1, 0, 0, -1, -55.01, 231.95)" gradientUnits="userSpaceOnUse"><stop offset="0" stop-color="#7283ad"/><stop offset="0.99" stop-color="#7686b3"/></linearGradient></defs><g id="ELIPSE_BG" data-name="ELIPSE BG"><circle class="cls-1" cx="165.83" cy="165.83" r="164.83"/></g><g id="Layer_5" data-name="Layer 5"><path class="cls-2" d="M96,204a20.74,20.74,0,0,1-7.15-1.25c-16.35-6-22.16-31.37-13-56.67,7.66-21,24.14-36.33,39.19-36.33a20.83,20.83,0,0,1,7.16,1.24c7.7,2.8,13.34,10.09,15.87,20.51,2.65,10.86,1.61,23.71-2.92,36.16C127.51,188.71,111,204,96,204Z" transform="translate(-39.54 -33.47)"/><path class="cls-3" d="M115.12,112.74a17.81,17.81,0,0,1,6.13,1.06c6.73,2.45,11.7,9,14,18.4,2.51,10.29,1.5,22.52-2.83,34.43C125.17,186.54,109.87,201,96,201a17.78,17.78,0,0,1-6.13-1.07c-6.72-2.44-11.69-9-14-18.4C73.4,171.23,74.4,159,78.74,147.1c7.25-19.91,22.54-34.36,36.37-34.36m0-6c-16.11,0-33.66,15.38-42,38.31-9.79,26.89-3.19,54,14.74,60.51A23.76,23.76,0,0,0,96,207c16.11,0,33.67-15.38,42-38.31,9.79-26.9,3.19-54-14.74-60.52a23.79,23.79,0,0,0-8.18-1.42Z" transform="translate(-39.54 -33.47)"/><path class="cls-4" d="M120,219.68a23.53,23.53,0,0,1-8.06-1.4c-8.66-3.15-15-11.33-17.85-23-3-12.14-1.8-26.47,3.26-40.38,8.56-23.52,27-40.59,43.86-40.59a23.39,23.39,0,0,1,8.07,1.4c18.33,6.68,24.88,35.12,14.58,63.4-8.56,23.52-27,40.59-43.85,40.59Z" transform="translate(-39.54 -33.47)"/><path class="cls-3" d="M141.23,117.29a20.67,20.67,0,0,1,7,1.22c7.69,2.8,13.36,10.23,16,20.92,2.82,11.56,1.69,25.28-3.17,38.64-8.14,22.37-25.4,38.61-41,38.61a20.59,20.59,0,0,1-7-1.22c-7.69-2.8-13.35-10.23-16-20.91-2.81-11.57-1.69-25.29,3.17-38.64,8.14-22.38,25.4-38.62,41-38.62m0-6c-17.9,0-37.41,17.09-46.68,42.57-10.87,29.88-3.54,60,16.38,67.24a26.55,26.55,0,0,0,9.09,1.58c17.9,0,37.41-17.09,46.68-42.56,10.88-29.89,3.55-60-16.38-67.24A26.36,26.36,0,0,0,141.23,111.29Z" transform="translate(-39.54 -33.47)"/><path class="cls-3" d="M168.9,194.71a2,2,0,0,1-.73-.13l-36.88-13.42a7.48,7.48,0,0,1-4.47-9.6l2.78-7.64a7.47,7.47,0,0,1,9.58-4.49h0l36,13.08a2.14,2.14,0,0,1-1.46,4l-36-13.09a3.23,3.23,0,0,0-2.46.11,3.12,3.12,0,0,0-1.66,1.81L130.79,173a3.21,3.21,0,0,0,1.91,4.12h0l36.87,13.42a2.14,2.14,0,0,1-.73,4.15Z" transform="translate(-39.54 -33.47)"/><path class="cls-5" d="M292.9,217.63l-118.48-43.1-35.91-13.08a5.35,5.35,0,0,0-6.86,3.19h0l-2.78,7.64a5.36,5.36,0,0,0,3.19,6.86h0l36.87,13.42,117.57,42.79a5.36,5.36,0,0,0,6.86-3.2h0l2.78-7.64a5.36,5.36,0,0,0-3.18-6.87Z" transform="translate(-39.54 -33.47)"/><path class="cls-6" d="M256.13,271a24,24,0,0,1-8.27-1.44C239,266.36,232.49,258,229.57,246c-3-12.42-1.84-27.09,3.34-41.32,8.76-24.07,27.65-41.55,44.91-41.55a24.08,24.08,0,0,1,8.27,1.44c18.78,6.84,25.49,35.95,15,64.91-8.76,24.07-27.65,41.54-44.9,41.54Z" transform="translate(-39.54 -33.47)"/><path class="cls-3" d="M277.82,166.14a21,21,0,0,1,7.24,1.26c7.91,2.88,13.73,10.51,16.41,21.48,2.88,11.85,1.73,25.9-3.25,39.58-8.34,22.93-26,39.57-42.09,39.57a21,21,0,0,1-7.24-1.26c-7.91-2.87-13.73-10.5-16.4-21.47-2.89-11.85-1.74-25.91,3.24-39.59,8.35-22.92,26-39.57,42.09-39.57m0-6c-18.3,0-38.25,17.48-47.73,43.52C219,234.22,226.47,265,246.84,272.41a27,27,0,0,0,9.29,1.62c18.3,0,38.25-17.47,47.73-43.52,11.12-30.55,3.62-61.33-16.75-68.75A27,27,0,0,0,277.82,160.14Z" transform="translate(-39.54 -33.47)"/><path class="cls-7" d="M283.39,288.86a27.07,27.07,0,0,1-9.31-1.62c-10-3.63-17.26-13-20.53-26.44-3.38-13.86-2.06-30.23,3.72-46.1,9.78-26.88,30.9-46.38,50.21-46.38a27.05,27.05,0,0,1,9.3,1.62c10,3.63,17.27,13,20.54,26.44,3.37,13.86,2.05,30.23-3.73,46.1-9.78,26.88-30.89,46.38-50.2,46.38Z" transform="translate(-39.54 -33.47)"/><path class="cls-3" d="M307.51,171.32a24.07,24.07,0,0,1,8.27,1.43c9,3.28,15.63,11.92,18.65,24.34,3.24,13.29,1.95,29-3.62,44.36-9.37,25.74-29.3,44.41-47.39,44.41a24.05,24.05,0,0,1-8.28-1.44c-9-3.27-15.62-11.91-18.65-24.33-3.24-13.29-2-29,3.63-44.36,9.36-25.74,29.29-44.41,47.39-44.41m0-6c-20.33,0-42.5,19.41-53,48.35-12.36,34-4,68.15,18.61,76.39a30,30,0,0,0,10.33,1.8c20.33,0,42.49-19.41,53-48.35,12.36-33.95,4-68.16-18.6-76.39a30.07,30.07,0,0,0-10.33-1.8Z" transform="translate(-39.54 -33.47)"/><ellipse class="cls-3" cx="318.44" cy="198.86" rx="12.23" ry="19.16" transform="translate(-88.35 87.44) rotate(-20)"/><ellipse class="cls-3" cx="113.57" cy="196.08" rx="9.55" ry="14.96" transform="translate(-99.75 17.2) rotate(-20)"/></g></svg>