<svg xmlns="http://www.w3.org/2000/svg" xmlns:xlink="http://www.w3.org/1999/xlink" viewBox="0 0 400 400"><defs><style>.cls-1{fill:#fcf8f3;}.cls-2{fill:url(#linear-gradient);}.cls-3{fill:url(#linear-gradient-2);}.cls-4{fill:url(#linear-gradient-3);}.cls-5{fill:url(#linear-gradient-4);}.cls-6{fill:url(#linear-gradient-5);}.cls-7{fill:none;}.cls-8{fill:#db996c;}</style><linearGradient id="linear-gradient" x1="37.28" y1="291.48" x2="138.34" y2="254.7" gradientUnits="userSpaceOnUse"><stop offset="0" stop-color="#6b7ba2"/><stop offset="0.64" stop-color="#7182ab"/><stop offset="0.99" stop-color="#7687b3"/></linearGradient><linearGradient id="linear-gradient-2" x1="64.76" y1="307.13" x2="177.66" y2="266.04" gradientUnits="userSpaceOnUse"><stop offset="0" stop-color="#6b7ba2"/><stop offset="0.64" stop-color="#7182ab"/><stop offset="1" stop-color="#7688b3"/></linearGradient><linearGradient id="linear-gradient-3" x1="120.66" y1="288.56" x2="339.98" y2="368.39" gradientUnits="userSpaceOnUse"><stop offset="0" stop-color="#eda575"/><stop offset="1" stop-color="#e8a272"/></linearGradient><linearGradient id="linear-gradient-4" x1="245.26" y1="374.41" x2="360.78" y2="332.36" xlink:href="#linear-gradient"/><linearGradient id="linear-gradient-5" x1="276.44" y1="392.2" x2="405.43" y2="345.26" gradientUnits="userSpaceOnUse"><stop offset="0" stop-color="#7283ad"/><stop offset="0.99" stop-color="#7686b3"/></linearGradient></defs><g id="ELIPSE_BG" data-name="ELIPSE BG"><circle class="cls-1" cx="203.85" cy="204.62" r="164.83"/></g><g id="Layer_5" data-name="Layer 5"><path class="cls-2" d="M75.08,336.92a28.8,28.8,0,0,1-9.88-1.72c-22.32-8.12-30.33-42.59-17.86-76.84,10.52-28.91,32.39-49.11,53.19-49.11a28.86,28.86,0,0,1,9.89,1.72c22.31,8.12,30.32,42.6,17.86,76.85-10.52,28.91-32.4,49.1-53.19,49.1Z" transform="translate(-17 -125)"/><path class="cls-1" d="M100.53,212.25a25.8,25.8,0,0,1,8.86,1.54c9.62,3.5,16.69,12.71,19.91,25.94,3.44,14.1,2.07,30.82-3.84,47.06-9.94,27.31-31.13,47.13-50.38,47.13a25.78,25.78,0,0,1-8.85-1.54c-9.62-3.5-16.69-12.71-19.91-25.94-3.44-14.1-2.08-30.81,3.84-47.06,9.94-27.31,31.12-47.13,50.37-47.13m0-6c-21.47,0-44.88,20.51-56,51.08-13.05,35.86-4.25,72,19.65,80.69a31.65,31.65,0,0,0,10.91,1.9c21.48,0,44.89-20.51,56-51.08,13.05-35.86,4.25-72-19.66-80.69a31.84,31.84,0,0,0-10.91-1.9Z" transform="translate(-17 -125)"/><path class="cls-3" d="M107.07,357.85A32.36,32.36,0,0,1,96,355.92c-25-9.09-34-47.59-20-85.81,11.74-32.26,36.17-54.78,59.42-54.78a32.34,32.34,0,0,1,11.09,1.93c25,9.08,34,47.58,20.05,85.81-11.74,32.25-36.18,54.78-59.42,54.78Z" transform="translate(-17 -125)"/><path class="cls-1" d="M135.35,218.33a29.38,29.38,0,0,1,10.07,1.75c10.9,4,18.9,14.37,22.54,29.29,3.85,15.79,2.32,34.5-4.29,52.67-5.59,15.37-14.54,29.11-25.19,38.71-10.08,9.09-21.24,14.1-31.41,14.1A29.38,29.38,0,0,1,97,353.1c-10.9-4-18.91-14.37-22.54-29.3-3.85-15.79-2.33-34.5,4.29-52.67,5.59-15.36,14.53-29.11,25.18-38.71,10.09-9.09,21.24-14.09,31.42-14.09m0-6c-23.87,0-49.88,22.78-62.24,56.75-14.51,39.85-4.73,80,21.84,89.66a35.43,35.43,0,0,0,12.12,2.11c23.86,0,49.87-22.79,62.24-56.76,14.5-39.84,4.72-80-21.84-89.65a35.19,35.19,0,0,0-12.12-2.11Z" transform="translate(-17 -125)"/><path class="cls-1" d="M172.24,323.55a2.85,2.85,0,0,1-1-.17L122.1,305.49a10,10,0,0,1-6-12.81l3.7-10.19a10,10,0,0,1,12.81-6L180.57,294a2.85,2.85,0,1,1-1.95,5.36l-47.93-17.45a4.29,4.29,0,0,0-5.49,2.56l-3.71,10.19a4.29,4.29,0,0,0,2.56,5.49L173.22,318a2.85,2.85,0,0,1-1,5.53Z" transform="translate(-17 -125)"/><path class="cls-4" d="M337.57,354.15l-158-57.5L131.66,279.2a7.13,7.13,0,0,0-9.14,4.27l-3.71,10.19a7.13,7.13,0,0,0,4.26,9.14l49.17,17.9L329,377.75a7.13,7.13,0,0,0,9.15-4.27l3.71-10.19A7.13,7.13,0,0,0,337.57,354.15Z" transform="translate(-17 -125)"/><path class="cls-5" d="M288.55,426.31a33,33,0,0,1-11.37-2c-12.16-4.42-21.05-15.84-25-32.15-4.08-16.74-2.49-36.51,4.49-55.67,12-33,37-56.05,60.81-56.05a33.21,33.21,0,0,1,11.37,2c25.56,9.3,34.77,48.7,20.53,87.82-12,33-37,56.05-60.81,56.05Z" transform="translate(-17 -125)"/><path class="cls-1" d="M317.46,283.46a30.15,30.15,0,0,1,10.34,1.8c11.19,4.07,19.41,14.74,23.14,30,3.94,16.18,2.38,35.33-4.39,53.93C340.82,385,331.66,399,320.76,408.87c-10.34,9.31-21.78,14.44-32.21,14.44a30.14,30.14,0,0,1-10.34-1.79c-11.19-4.08-19.41-14.75-23.14-30-3.94-16.17-2.38-35.33,4.39-53.93,5.73-15.73,14.89-29.8,25.79-39.63,10.34-9.32,21.78-14.45,32.21-14.45m0-6c-24.4,0-51,23.3-63.63,58C239,376.23,249,417.27,276.16,427.15a36,36,0,0,0,12.39,2.16c24.4,0,51-23.3,63.63-58C367,330.55,357,289.5,329.85,279.62a36,36,0,0,0-12.39-2.16Z" transform="translate(-17 -125)"/><path class="cls-6" d="M324.89,450.09a37.41,37.41,0,0,1-12.75-2.22c-28.57-10.4-38.9-54.37-23-98,6.57-18,17.09-34.19,29.65-45.5,12.16-11,25.74-17,38.24-17a37.16,37.16,0,0,1,12.74,2.22c13.63,5,23.57,17.73,28,36,4.54,18.67,2.77,40.7-5,62-6.56,18-17.09,34.19-29.64,45.5-12.16,11-25.74,17-38.24,17Z" transform="translate(-17 -125)"/><path class="cls-1" d="M357,290.36a34.2,34.2,0,0,1,11.72,2c12.65,4.6,21.92,16.62,26.12,33.85,4.41,18.1,2.67,39.52-4.9,60.31-6.4,17.58-16.63,33.31-28.83,44.3-11.61,10.46-24.48,16.23-36.23,16.23a34.15,34.15,0,0,1-11.72-2c-12.65-4.6-21.93-16.63-26.13-33.85-4.4-18.1-2.66-39.52,4.9-60.31,6.4-17.58,16.64-33.31,28.83-44.3,11.61-10.47,24.48-16.23,36.24-16.23m0-6c-27.11,0-56.66,25.89-70.71,64.48-16.47,45.26-5.36,90.86,24.82,101.85a40,40,0,0,0,13.77,2.4c27.11,0,56.66-25.89,70.7-64.48,16.48-45.27,5.37-90.87-24.81-101.85a40.09,40.09,0,0,0-13.77-2.4Z" transform="translate(-17 -125)"/><ellipse class="cls-1" cx="371.64" cy="329.08" rx="16.3" ry="25.54" transform="translate(-107.14 21.95) rotate(-20)"/><ellipse class="cls-1" cx="98.46" cy="325.38" rx="12.73" ry="19.95" transform="translate(-122.35 -71.7) rotate(-20)"/><rect class="cls-7" width="400" height="400"/></g><g id="Layer_7" data-name="Layer 7"><path class="cls-1" d="M340.68,270.05a10,10,0,0,1-8.29-4.41l-2.82-4.17a10,10,0,0,1,2.69-13.89l9.6-6.48,12.43-23a10,10,0,0,1,8.31-5.22l.49,0a10,10,0,0,1,8.28,4.41l3,4.37a10,10,0,0,1,.45,10.46l-1.73,3.11,3.36-.47a10.8,10.8,0,0,1,1.38-.1,10,10,0,0,1,8.29,4.41l2.89,4.27a10,10,0,0,1-7.16,15.54l-25.93,3-9.61,6.48A10,10,0,0,1,340.68,270.05Z" transform="translate(-17 -125)"/><path class="cls-1" d="M231.88,197.53a37.2,37.2,0,0,1-5.55-.44l-11.91-1.85a10,10,0,0,1-8.35-11.42l6-38.89a10,10,0,0,1,9.87-8.47,10.21,10.21,0,0,1,1.55.12l11,1.71a33.64,33.64,0,0,1,9.73,3,19.56,19.56,0,0,1,8.4,7.66,18.39,18.39,0,0,1,2.09,12.37,19.15,19.15,0,0,1-2.31,6.61,18.86,18.86,0,0,1,1.71,11.75,20.52,20.52,0,0,1-5.58,11.54,20.91,20.91,0,0,1-10.78,5.77A29.13,29.13,0,0,1,231.88,197.53Z" transform="translate(-17 -125)"/><path class="cls-1" d="M327.76,245.59a24.55,24.55,0,0,1-6-.75,29.18,29.18,0,0,1-13.23-7.73l-7.13-7a10,10,0,0,1-.17-14.14l27.48-28.18a10,10,0,0,1,7-3h.13a10,10,0,0,1,7,2.85l7,6.78A30.31,30.31,0,0,1,358,207.32a24.45,24.45,0,0,1-.34,15.1,34.35,34.35,0,0,1-8.22,12.86,35.37,35.37,0,0,1-12.6,8.61A25.42,25.42,0,0,1,327.76,245.59Z" transform="translate(-17 -125)"/><path class="cls-1" d="M298.75,222.71c-.33,0-.65,0-1,0a29.17,29.17,0,0,1-14.54-4.85l-8.41-5.34a10,10,0,0,1-3.08-13.8l21.1-33.22a10,10,0,0,1,13.8-3.09l8.21,5.21a30.29,30.29,0,0,1,10.65,10.93,24.45,24.45,0,0,1,2.78,14.84,34.32,34.32,0,0,1-5.41,14.28,35.29,35.29,0,0,1-10.56,11A24.88,24.88,0,0,1,298.75,222.71Z" transform="translate(-17 -125)"/><path class="cls-1" d="M265.58,207.53a25.36,25.36,0,0,1-8.64-1.67,25.77,25.77,0,0,1-7.62-4.42,21,21,0,0,1-5.69-7.58,22.12,22.12,0,0,1-1.76-10,33.06,33.06,0,0,1,2.23-10.2l8.6-22.91a10,10,0,0,1,12.88-5.85l4.72,1.77a10,10,0,0,1,6.22,7.07,10,10,0,0,1,5.82-1.87,9.89,9.89,0,0,1,3.52.64l4.55,1.71a10,10,0,0,1,5.85,12.87L287.65,190a32.44,32.44,0,0,1-5,9.15,22.39,22.39,0,0,1-7.78,6.32,21,21,0,0,1-9,2Z" transform="translate(-17 -125)"/><path class="cls-8" d="M216,185.36l6-38.9,11,1.71a23.43,23.43,0,0,1,6.82,2,9.73,9.73,0,0,1,4.22,3.75,8.57,8.57,0,0,1,.83,5.78,9,9,0,0,1-2.47,5,8.75,8.75,0,0,1-5.66,2.43l0,.24a11.9,11.9,0,0,1,6.18,4,8.59,8.59,0,0,1,1.39,6.71,10.8,10.8,0,0,1-2.82,6.06,11,11,0,0,1-5.72,3,22,22,0,0,1-7.87.06Zm5.56-3.39,6.29,1q5,.78,8-.54t3.64-5.3a5.56,5.56,0,0,0-1.89-5.6c-1.64-1.33-4.15-2.26-7.55-2.79l-6.29-1Zm2.86-18.38,5.27.82q5,.76,7.4-.49a5.74,5.74,0,0,0,2.91-4.53,4.74,4.74,0,0,0-1.59-4.8c-1.39-1.11-3.58-1.89-6.58-2.36l-5.52-.86Z" transform="translate(-17 -125)"/><path class="cls-8" d="M260.45,196.49a15.29,15.29,0,0,1-4.66-2.68,11.11,11.11,0,0,1-3-4,12.2,12.2,0,0,1-.91-5.5,23,23,0,0,1,1.6-7.09l8.6-22.92,4.72,1.77-8.64,23a16.34,16.34,0,0,0-1.28,6.48,7.28,7.28,0,0,0,1.55,4.33,9,9,0,0,0,8,3,7.26,7.26,0,0,0,4-2.24,16.45,16.45,0,0,0,3.3-5.72l8.64-23,4.55,1.71-8.6,22.92a22.76,22.76,0,0,1-3.46,6.39,12.27,12.27,0,0,1-4.28,3.55,10.83,10.83,0,0,1-4.85,1.06A15.07,15.07,0,0,1,260.45,196.49Z" transform="translate(-17 -125)"/><path class="cls-8" d="M280.19,204.06l21.1-33.22,8.21,5.21a20.28,20.28,0,0,1,7.22,7.25,14.55,14.55,0,0,1,1.64,8.89,24.41,24.41,0,0,1-3.92,10.1,25.31,25.31,0,0,1-7.5,8,14.92,14.92,0,0,1-8.78,2.46,19.28,19.28,0,0,1-9.56-3.3Zm6.39-.77,3.7,2.35a13.64,13.64,0,0,0,7.32,2.4,11.59,11.59,0,0,0,6.67-2.16,21.43,21.43,0,0,0,5.81-6.36,21.15,21.15,0,0,0,3.24-7.9,10.9,10.9,0,0,0-1-6.82,14.35,14.35,0,0,0-5.36-5.5L303.31,177Z" transform="translate(-17 -125)"/><path class="cls-8" d="M308.38,223l27.48-28.18,6.95,6.79a20.39,20.39,0,0,1,5.59,8.59,14.65,14.65,0,0,1-.23,9,24.5,24.5,0,0,1-5.91,9.07,25.43,25.43,0,0,1-9,6.24,14.82,14.82,0,0,1-9.09.6,19.16,19.16,0,0,1-8.68-5.19Zm6.41.56,3.13,3.06a13.74,13.74,0,0,0,6.67,3.86,11.66,11.66,0,0,0,7-.74,21.51,21.51,0,0,0,7-5,21.2,21.2,0,0,0,4.8-7.06,11,11,0,0,0,.46-6.88,14.39,14.39,0,0,0-4.11-6.48l-3.14-3.06Z" transform="translate(-17 -125)"/><path class="cls-8" d="M337.85,255.87,349.49,248l13.6-25.11,3,4.38-6.37,11.47q-1.2,2.19-2.49,4.36c-.86,1.45-1.72,2.95-2.6,4.51l.13.2,5.19-.68,5.06-.67,12.83-1.79,2.89,4.28-28.37,3.23-11.64,7.86Z" transform="translate(-17 -125)"/></g><g id="Layer_4" data-name="Layer 4"><path class="cls-1" d="M176.49,450.73a12.13,12.13,0,0,1-9.23-4.21,12.59,12.59,0,0,1-8.49,3.27,12,12,0,0,1-7.32-2.44,12.12,12.12,0,0,1-8,3,12.34,12.34,0,0,1-9.53-4.44,12.53,12.53,0,0,1-2.88-8.11,45.62,45.62,0,0,1,2-12.29l2.46-9s1.3-7.07,1.31-7.11c1-5.07,2.15-8.24,3.81-10.59a12.73,12.73,0,0,1,10.49-5.59,12.18,12.18,0,0,1,9,3.93,12.53,12.53,0,0,1,9.45-4.29c2.26,0,9.88.82,12.72,11.28a49.84,49.84,0,0,1,1.18,6.87,124.75,124.75,0,0,0,3.17,16.72l1.12,3.94a25.25,25.25,0,0,1,1.27,6.73,12.09,12.09,0,0,1-4.1,9.14A12.57,12.57,0,0,1,176.49,450.73Z" transform="translate(-17 -125)"/><path class="cls-1" d="M84.83,450.4c-8.46,0-13.43-3.56-16.1-6.55-3.61-4-5.43-9.52-5.43-16.34A40.66,40.66,0,0,1,67,410.93a39.64,39.64,0,0,1,9.89-13.82,19.49,19.49,0,0,1,13-5.14,25.17,25.17,0,0,1,9.36,2.13c9.16,3.62,10.53,9.7,10.53,13a12.38,12.38,0,0,1-1.31,5.55,13.25,13.25,0,0,1,1.13,1,12.32,12.32,0,0,1,3.6,8.78,12.45,12.45,0,0,1-2.23,7.22,29.88,29.88,0,0,1-8.37,13.8A25.77,25.77,0,0,1,84.83,450.4Z" transform="translate(-17 -125)"/><path class="cls-1" d="M117.27,450.43a12.45,12.45,0,0,1-8.38-3.27,12.12,12.12,0,0,1-4-9.1c0-2.77,1-5.2,3.31-9.56a32.68,32.68,0,0,1-3-5.53,26.53,26.53,0,0,0-2.55-4.52c-3.16-4.74-4-6.07-4.38-6.8a12.66,12.66,0,0,1-1.61-6.12,12.23,12.23,0,0,1,3.9-9,12.43,12.43,0,0,1,8.52-3.39,12.25,12.25,0,0,1,10.1,5.35l.22.33,1.41,2.18c.06-.13.12-.26.19-.39a12.2,12.2,0,0,1,11.28-7.45,12.54,12.54,0,0,1,8.32,3.18,12.1,12.1,0,0,1,4.09,9.17,16.42,16.42,0,0,1-2.51,8.17l-.27.47a16.57,16.57,0,0,0-.85,1.56s-3.9,9.63-3.92,9.66c-1.63,3.91-3.2,7.39-4.65,10.35l-.25.48-2.8,5-1.12,2.28c-.09.19-.19.37-.29.54A12.32,12.32,0,0,1,117.27,450.43Z" transform="translate(-17 -125)"/><path class="cls-8" d="M101.92,424.61a20.75,20.75,0,0,1-6.11,11.49,15.62,15.62,0,0,1-11,4.3c-3.84,0-6.73-1.07-8.65-3.22s-2.88-5.37-2.88-9.67A30.66,30.66,0,0,1,76.17,415a29.63,29.63,0,0,1,7.37-10.39A9.47,9.47,0,0,1,89.89,402a16.22,16.22,0,0,1,5.63,1.4q4.26,1.69,4.26,3.73a2.42,2.42,0,0,1-.7,1.71,2.23,2.23,0,0,1-1.69.75,3,3,0,0,1-1.45-.59,12.39,12.39,0,0,0-6-2.18,5.52,5.52,0,0,0-3.68,1.83A29,29,0,0,0,83.45,412,25.3,25.3,0,0,0,78,427.51c0,2.94.46,5,1.36,6.17s2.8,1.92,5.44,1.92A10.82,10.82,0,0,0,92.12,433a15,15,0,0,0,4.55-8,29.73,29.73,0,0,0-11.14,2.51,2.46,2.46,0,0,1-1,.26,2.15,2.15,0,0,1-1.71-.8,2.51,2.51,0,0,1-.64-1.69,2.35,2.35,0,0,1,1.25-2.06Q88.44,420,100.84,420a2.25,2.25,0,0,1,1.68.68,2.49,2.49,0,0,1-.6,3.89Z" transform="translate(-17 -125)"/><path class="cls-8" d="M133.46,408.81c-.37.59-.87,1.51-1.5,2.74l-4,10q-2.34,5.61-4.41,9.8l-2.93,5.23-1.24,2.53a2.34,2.34,0,0,1-2.08,1.36,2.45,2.45,0,0,1-1.67-.68,2.2,2.2,0,0,1-.75-1.69c0-.53.74-2.19,2.2-5l2.89-5.28a39.39,39.39,0,0,1-5.44-8.53,36.4,36.4,0,0,0-3.52-6.35q-3.37-5.06-4-6.12a2.61,2.61,0,0,1-.35-1.26,2.25,2.25,0,0,1,.74-1.7,2.39,2.39,0,0,1,1.68-.69,2.3,2.3,0,0,1,1.92,1.1l1.87,2.91q2.49,3.68,3.28,5a36,36,0,0,1,2.75,5.35,25.62,25.62,0,0,0,3.3,5.32l5.37-13.08q.92-1.62,2.53-5a2.24,2.24,0,0,1,2.18-1.6,2.44,2.44,0,0,1,1.67.66,2.14,2.14,0,0,1,.74,1.69A7.91,7.91,0,0,1,133.46,408.81Z" transform="translate(-17 -125)"/><path class="cls-8" d="M176.49,440.73a2.43,2.43,0,0,1-2.09-1.31,12.61,12.61,0,0,1-1.26-3.75l-.85-4q-1-3.75-3-16.55l-4.69,14.13-1.38,4.46a26,26,0,0,1-1.76,4.33,3,3,0,0,1-2.65,1.78,2.42,2.42,0,0,1-2.18-1.5,13.63,13.63,0,0,1-.94-2.5l-.68-2.6q-2.35-8.28-4.17-17.72l-.84,4.19-3,12.38a51.34,51.34,0,0,1-1.18,6.44,2.42,2.42,0,0,1-2.32,1.83,2.26,2.26,0,0,1-1.83-.82,2.62,2.62,0,0,1-.58-1.73,36.22,36.22,0,0,1,1.62-9.61l2.57-9.45,1.36-7.38q1-5.18,2.18-6.78a2.77,2.77,0,0,1,2.32-1.35,2.43,2.43,0,0,1,2.28,1.73,43.27,43.27,0,0,1,2,8.51,136.75,136.75,0,0,0,3.86,16.69,171.23,171.23,0,0,0,6-18.8l.71-3.42a12,12,0,0,1,1.1-3.33,2.78,2.78,0,0,1,2.51-1.74q2,0,3.07,3.89a49.36,49.36,0,0,1,.91,5.54,134.26,134.26,0,0,0,3.45,18.09l1.14,4a22.33,22.33,0,0,1,.89,4,2.14,2.14,0,0,1-.76,1.68A2.49,2.49,0,0,1,176.49,440.73Z" transform="translate(-17 -125)"/></g></svg>