<svg xmlns="http://www.w3.org/2000/svg" xmlns:xlink="http://www.w3.org/1999/xlink" viewBox="0 0 400 400"><defs><style>.cls-1{fill:#fcf8f3;}.cls-2{fill:#db996c;}.cls-3{fill:url(#linear-gradient);}.cls-4{fill:url(#linear-gradient-2);}.cls-5{fill:url(#linear-gradient-3);}.cls-6{fill:url(#linear-gradient-4);}.cls-7{fill:url(#linear-gradient-5);}.cls-8{fill:none;}</style><linearGradient id="linear-gradient" x1="37.28" y1="291.48" x2="138.34" y2="254.7" gradientUnits="userSpaceOnUse"><stop offset="0" stop-color="#6b7ba2"/><stop offset="0.64" stop-color="#7182ab"/><stop offset="0.99" stop-color="#7687b3"/></linearGradient><linearGradient id="linear-gradient-2" x1="64.76" y1="307.13" x2="177.66" y2="266.04" gradientUnits="userSpaceOnUse"><stop offset="0" stop-color="#6b7ba2"/><stop offset="0.64" stop-color="#7182ab"/><stop offset="1" stop-color="#7688b3"/></linearGradient><linearGradient id="linear-gradient-3" x1="120.66" y1="288.56" x2="339.98" y2="368.39" gradientUnits="userSpaceOnUse"><stop offset="0" stop-color="#eda575"/><stop offset="1" stop-color="#e8a272"/></linearGradient><linearGradient id="linear-gradient-4" x1="245.26" y1="374.41" x2="360.78" y2="332.36" xlink:href="#linear-gradient"/><linearGradient id="linear-gradient-5" x1="276.44" y1="392.2" x2="405.43" y2="345.26" gradientUnits="userSpaceOnUse"><stop offset="0" stop-color="#7283ad"/><stop offset="0.99" stop-color="#7686b3"/></linearGradient></defs><g id="ELIPSE_BG" data-name="ELIPSE BG"><circle class="cls-1" cx="203.85" cy="204.62" r="164.83"/></g><g id="WORKOUT"><path class="cls-1" d="M185.32,182.57a7.14,7.14,0,0,1-6.86-5.17l-11-38.28a7.13,7.13,0,0,1,5.94-9.05l5.59-.72a7.12,7.12,0,0,1,7.83,5.34l1,4a7.09,7.09,0,0,1,2-.55l4.75-.61a7.22,7.22,0,0,1,.92-.06,6.84,6.84,0,0,1,.91.06l-.07-4.05a7.13,7.13,0,0,1,6.22-7.2l5.35-.69a7,7,0,0,1,.91-.06,7.13,7.13,0,0,1,7.14,7.25l-.66,39.8a7.12,7.12,0,0,1-6.22,7l-6.18.8a7.13,7.13,0,0,1-5.6-1.69,7.07,7.07,0,0,1-5,3.06l-6.06.79A7.22,7.22,0,0,1,185.32,182.57Z" transform="translate(-17 -125)"/><path class="cls-1" d="M231.9,181c-.59,0-1.19,0-1.79-.07a20.19,20.19,0,0,1-11.68-4.75,23.11,23.11,0,0,1-6.92-10.67,35.8,35.8,0,0,1-1.36-14,35.12,35.12,0,0,1,3.57-13.42,22.73,22.73,0,0,1,8.58-9.32,20.19,20.19,0,0,1,10.39-2.8c.6,0,1.21,0,1.82.08a20.4,20.4,0,0,1,11.62,4.63,22.84,22.84,0,0,1,7,10.57,34.91,34.91,0,0,1,1.38,13.82,35.7,35.7,0,0,1-3.57,13.57,22.93,22.93,0,0,1-8.53,9.43A19.92,19.92,0,0,1,231.9,181Zm1-36.34a.7.7,0,0,0-.51.17,5.43,5.43,0,0,0-1.51,2.18,19.25,19.25,0,0,0-1.32,6.09,20,20,0,0,0,.34,6.41,5.91,5.91,0,0,0,1.18,2.58.68.68,0,0,0,.56.25h.14a.59.59,0,0,0,.44-.17,5.81,5.81,0,0,0,1.59-2.35,20.32,20.32,0,0,0,1.36-6.28,19.36,19.36,0,0,0-.34-6.22,5.41,5.41,0,0,0-1.14-2.4.81.81,0,0,0-.63-.27Z" transform="translate(-17 -125)"/><path class="cls-1" d="M278.82,190.83a7.07,7.07,0,0,1-2-.29l-5.46-1.62a7.16,7.16,0,0,1-4.92-5.21L265,177.52l-.56,1.91a7.11,7.11,0,0,1-8.87,4.81l-4.77-1.41a7.14,7.14,0,0,1-4.82-8.87l11.16-37.7a7.16,7.16,0,0,1,3.44-4.24,7.06,7.06,0,0,1,3.41-.87,7.31,7.31,0,0,1,2,.29l11.73,3.48a29.1,29.1,0,0,1,8.6,4,16.75,16.75,0,0,1,6.27,8.15,17.69,17.69,0,0,1,0,11.15,18.27,18.27,0,0,1-5.89,9.28,17.41,17.41,0,0,1-3.84,2.38l2.94,12.1a7.13,7.13,0,0,1-6.93,8.82Zm-6.52-38.09a7.41,7.41,0,0,0,1.51.25,10.75,10.75,0,0,0-1.42-.56Z" transform="translate(-17 -125)"/><path class="cls-1" d="M310.65,207.46a7.12,7.12,0,0,1-3.38-.85l-5-2.66a7.14,7.14,0,0,1-3.76-6.19l-.13-10-2.5,4.64a7.13,7.13,0,0,1-6.29,3.76,7.06,7.06,0,0,1-3.37-.85l-4.44-2.38a7.14,7.14,0,0,1-2.9-9.67l18.61-34.63a7.17,7.17,0,0,1,4.23-3.46,7.28,7.28,0,0,1,2.06-.3,7.18,7.18,0,0,1,3.38.85l4.43,2.39a7.14,7.14,0,0,1,2.91,9.66l-.16.29,6-2.38a7.12,7.12,0,0,1,6,.34l5,2.7a7.14,7.14,0,0,1-.73,12.91L317.22,177l.56,23.14a7.13,7.13,0,0,1-7.13,7.3Z" transform="translate(-17 -125)"/><path class="cls-1" d="M332.25,222.48c-.54,0-1.09,0-1.63-.06a20.9,20.9,0,0,1-18.35-15.52,23,23,0,0,1,.59-12.7,35.52,35.52,0,0,1,7-12.14,34.91,34.91,0,0,1,10.71-8.84,23.43,23.43,0,0,1,10.56-2.66c.61,0,1.24,0,1.85.08a21.2,21.2,0,0,1,18.25,15.43,22.7,22.7,0,0,1-.48,12.66,34.75,34.75,0,0,1-6.93,12,35.75,35.75,0,0,1-10.8,9A23.63,23.63,0,0,1,332.25,222.48Zm9.58-33a5.48,5.48,0,0,0-2.49.9,19.4,19.4,0,0,0-4.62,4.18,20.05,20.05,0,0,0-3.46,5.41,6,6,0,0,0-.54,2.79.66.66,0,0,0,.31.52.65.65,0,0,0,.54.22,5.91,5.91,0,0,0,2.69-1,20.3,20.3,0,0,0,4.76-4.32,19.52,19.52,0,0,0,3.35-5.25,5.4,5.4,0,0,0,.47-2.61.8.8,0,0,0-.36-.59.79.79,0,0,0-.64-.26v0Z" transform="translate(-17 -125)"/><path class="cls-1" d="M356.82,249.13A18.16,18.16,0,0,1,355,249a18,18,0,0,1-7.73-2.69,22.58,22.58,0,0,1-5.75-5.29,23,23,0,0,1-3.72-6.87,18.27,18.27,0,0,1-.75-8.17,19.31,19.31,0,0,1,3.24-8.19,30.29,30.29,0,0,1,6.62-6.85l19.31-15a7.1,7.1,0,0,1,4.38-1.5,6.49,6.49,0,0,1,.88,0,7.17,7.17,0,0,1,4.75,2.7l3.09,4a7.13,7.13,0,0,1-1.25,10l-19.41,15.08a9.8,9.8,0,0,0-2.56,2.58l-.13.28a1.74,1.74,0,0,0,.27.47,2,2,0,0,0,.42.42L357,230a9.49,9.49,0,0,0,3.13-1.85L379.5,213a7.14,7.14,0,0,1,10,1.25l3,3.84a7.13,7.13,0,0,1-1.25,10l-19.31,15a30.17,30.17,0,0,1-8.27,4.72A20.27,20.27,0,0,1,356.82,249.13Z" transform="translate(-17 -125)"/><path class="cls-1" d="M366.85,274.55a7.12,7.12,0,0,1-6.41-4L358.23,266a7.13,7.13,0,0,1,3.28-9.54l25.15-12.28L384.11,239a7.14,7.14,0,0,1,3.28-9.55l3.77-1.84a7.17,7.17,0,0,1,3.13-.72,7.15,7.15,0,0,1,6.41,4l13.57,27.8a7.13,7.13,0,0,1-3.28,9.54l-3.77,1.84a7.12,7.12,0,0,1-9.54-3.28l-2.55-5.22L370,273.83A7.16,7.16,0,0,1,366.85,274.55Z" transform="translate(-17 -125)"/><path class="cls-2" d="M185.32,175.43l-11-38.28,5.59-.73,6,24.12c.26,1.06.5,2,.71,2.9s.42,1.78.62,2.7.41,2,.62,3.34l.17,0c.07-1.34.14-2.49.22-3.45s.16-1.88.25-2.78.18-1.89.27-3l1.93-15,4.76-.62,5.56,14c.42,1,.78,2,1.09,2.82s.62,1.73.91,2.63.66,2,1.06,3.28l.24,0c-.09-1.32-.16-2.45-.23-3.39s-.1-1.84-.14-2.73-.06-1.86-.08-2.95l-.44-24.9,5.35-.69-.65,39.79-6.18.8-5.84-15.2c-.43-1.16-.84-2.29-1.23-3.41s-.75-2.26-1.1-3.42l-.18,0c-.05,1.21-.09,2.41-.14,3.58s-.16,2.38-.32,3.61l-1.78,16.19Z" transform="translate(-17 -125)"/><path class="cls-2" d="M230.68,173.86a13.16,13.16,0,0,1-7.63-3.08,16.06,16.06,0,0,1-4.76-7.45,28.54,28.54,0,0,1-1-11.18,27.79,27.79,0,0,1,2.78-10.69,15.61,15.61,0,0,1,5.87-6.47,14,14,0,0,1,15.65,1.26,15.6,15.6,0,0,1,4.77,7.32,27.87,27.87,0,0,1,1,11,28.67,28.67,0,0,1-2.8,10.87A16,16,0,0,1,238.7,172,13.09,13.09,0,0,1,230.68,173.86Zm.35-4.37a7.73,7.73,0,0,0,5.38-1.52,12.4,12.4,0,0,0,3.91-5.28,27.11,27.11,0,0,0,1.92-8.53,26.11,26.11,0,0,0-.54-8.58,12.11,12.11,0,0,0-3-5.69,8.24,8.24,0,0,0-10.46-.84,12.11,12.11,0,0,0-3.9,5.13,26.34,26.34,0,0,0-1.91,8.39,27.14,27.14,0,0,0,.54,8.73,12.43,12.43,0,0,0,3,5.83A7.73,7.73,0,0,0,231,169.49Z" transform="translate(-17 -125)"/><path class="cls-2" d="M252.78,176,264,138.29l11.72,3.47a21.81,21.81,0,0,1,6.51,3,9.6,9.6,0,0,1,3.67,4.71,10.84,10.84,0,0,1-.15,6.74,11.27,11.27,0,0,1-3.55,5.76,10.8,10.8,0,0,1-5.75,2.33,18.32,18.32,0,0,1-7.18-.78l-7-2.06-4.72,15.92Zm10.64-18.42,6.27,1.86q4.43,1.31,7.29.19a6.82,6.82,0,0,0,3.95-4.8c.73-2.46.46-4.42-.79-5.89s-3.35-2.65-6.3-3.53l-6.26-1.85Zm5.22,4.36,4.54-1.41,5.64,23.18-5.46-1.62Z" transform="translate(-17 -125)"/><path class="cls-2" d="M285.2,186.65,303.82,152l4.43,2.38-9.33,17.37.16.09,23.9-9.54,5,2.69-32.43,13-5.93,11Zm20.49,11-.33-25.08,4.56-2,.73,29.79Z" transform="translate(-17 -125)"/><path class="cls-2" d="M323.6,212.11a13,13,0,0,1-4.41-6.94,16,16,0,0,1,.47-8.82,28.69,28.69,0,0,1,5.68-9.69,27.88,27.88,0,0,1,8.48-7.07,15.64,15.64,0,0,1,8.55-1.84,14.07,14.07,0,0,1,12,10.14,15.64,15.64,0,0,1-.4,8.73,27.89,27.89,0,0,1-5.55,9.55,28.75,28.75,0,0,1-8.61,7.2,16,16,0,0,1-8.62,1.94A13.1,13.1,0,0,1,323.6,212.11Zm2.82-3.34a7.75,7.75,0,0,0,5.27,1.9,12.41,12.41,0,0,0,6.25-2,27.4,27.4,0,0,0,6.53-5.82,26.3,26.3,0,0,0,4.56-7.3,12.08,12.08,0,0,0,.84-6.38,8.21,8.21,0,0,0-8-6.77,12,12,0,0,0-6.16,1.89,26.41,26.41,0,0,0-6.43,5.71,26.77,26.77,0,0,0-4.65,7.41,12.48,12.48,0,0,0-.95,6.5A7.8,7.8,0,0,0,326.42,208.77Z" transform="translate(-17 -125)"/><path class="cls-2" d="M347.15,236.67a15.87,15.87,0,0,1-2.57-4.72,11.12,11.12,0,0,1-.46-5,12.22,12.22,0,0,1,2.1-5.16,23,23,0,0,1,5.07-5.2l19.31-15,3.09,4-19.4,15.08a16.32,16.32,0,0,0-4.48,4.84,7.26,7.26,0,0,0-.94,4.5,8.31,8.31,0,0,0,1.74,4,8.47,8.47,0,0,0,3.48,2.72,7.31,7.31,0,0,0,4.59.19,16.34,16.34,0,0,0,5.8-3.14l19.4-15.09,3,3.84-19.31,15a23.12,23.12,0,0,1-6.28,3.63,12.44,12.44,0,0,1-5.51.79,10.9,10.9,0,0,1-4.68-1.64A15.2,15.2,0,0,1,347.15,236.67Z" transform="translate(-17 -125)"/><path class="cls-2" d="M364.64,262.89l31.56-15.41-5.68-11.63,3.77-1.84,13.57,27.79-3.77,1.84L398.41,252l-31.56,15.42Z" transform="translate(-17 -125)"/></g><g id="Layer_6" data-name="Layer 6"><path class="cls-1" d="M282.11,165.74a13.9,13.9,0,0,1-1.12,2.08,5,5,0,0,0,5.65,7.34,5.43,5.43,0,0,0,3-2.3,14.33,14.33,0,0,0,1.12-2.08,5.62,5.62,0,0,0,.5-3.85,5.11,5.11,0,0,0-2.3-3,5,5,0,0,0-3.85-.5l-1.19.5a5,5,0,0,0-1.8,1.8Z" transform="translate(-17 -125)"/><path class="cls-1" d="M378.65,237.38c.09,1.24,0,2.49-1.08,3.28l6.06.78q1.06,4.27,1.16,1.05a14.43,14.43,0,0,0-.35-2.17c-.9-4.35-7-4.7-9.14-1.2a11.15,11.15,0,0,1-8.25,5.55c-2.69.28-5,2.09-5,5,0,2.48,2.3,5.28,5,5a21.74,21.74,0,0,0,16.89-10.5L374.8,243l.17.84v-2.66c-.52,2.8-.58,5.22,1.59,7.36,1.46,1.43,4.27,2.06,6.06.78,3.93-2.81,6.4-7,6-11.92-.47-6.37-10.48-6.43-10,0Z" transform="translate(-17 -125)"/><path class="cls-1" d="M338.86,188.13a43.78,43.78,0,0,1-8.74,8.51c-2.19,1.57-3.24,4.36-1.79,6.84,1.27,2.17,4.63,3.38,6.84,1.8a52.79,52.79,0,0,0,10.76-10.08c1.67-2.11,2.06-5,0-7.07-1.74-1.74-5.39-2.12-7.07,0Z" transform="translate(-17 -125)"/><path class="cls-1" d="M227.45,145.3q-.33,6.81-.94,13.6c-.24,2.7,2.47,5,5,5,2.91,0,4.76-2.3,5-5q.62-6.79.94-13.6c.31-6.43-9.69-6.41-10,0Z" transform="translate(-17 -125)"/><path class="cls-1" d="M323.28,182.82c0-1,.49-1.67,1.69-2.32a19,19,0,0,1,5.4-1.54c2.65-.54,4.17-3.67,3.49-6.15a5.1,5.1,0,0,0-6.15-3.49c-6.94,1.41-14.73,5.21-14.43,13.5.23,6.42,10.23,6.45,10,0Z" transform="translate(-17 -125)"/><path class="cls-1" d="M360.76,232.93l18.8-13.16c5.24-3.66.25-12.34-5-8.64l-18.81,13.16c-5.24,3.66-.24,12.34,5.05,8.64Z" transform="translate(-17 -125)"/><path class="cls-1" d="M64.5,417.06c2.13-.81,4.92-1.82,7.23-1.15l-3-2.29c-.06-.08.57-.74.26-.73-5.43.16-7,8.58-1.32,9.82q-1.72-2.16-1.33,0a16.65,16.65,0,0,0,.16,2.11,22.94,22.94,0,0,0,.94,4.41c1.94,6.11,11.6,3.5,9.64-2.66-1.59-5,.1-12-6.76-13.5L69,422.89c6.27-.19,11.2-5.71,9.42-12.06-2-7.09-11.38-5.4-16.59-3.41-6,2.28-3.36,11.95,2.66,9.64Z" transform="translate(-17 -125)"/></g><g id="Layer_5" data-name="Layer 5"><path class="cls-3" d="M75.08,336.92a28.8,28.8,0,0,1-9.88-1.72c-22.32-8.12-30.33-42.59-17.86-76.84,10.52-28.91,32.39-49.11,53.19-49.11a28.86,28.86,0,0,1,9.89,1.72c22.31,8.12,30.32,42.6,17.86,76.85-10.52,28.91-32.4,49.1-53.19,49.1Z" transform="translate(-17 -125)"/><path class="cls-1" d="M100.53,212.25a25.8,25.8,0,0,1,8.86,1.54c9.62,3.5,16.69,12.71,19.91,25.94,3.44,14.1,2.07,30.82-3.84,47.06-9.94,27.31-31.13,47.13-50.38,47.13a25.78,25.78,0,0,1-8.85-1.54c-9.62-3.5-16.69-12.71-19.91-25.94-3.44-14.1-2.08-30.81,3.84-47.06,9.94-27.31,31.12-47.13,50.37-47.13m0-6c-21.47,0-44.88,20.51-56,51.08-13.05,35.86-4.25,72,19.65,80.69a31.65,31.65,0,0,0,10.91,1.9c21.48,0,44.89-20.51,56-51.08,13.05-35.86,4.25-72-19.66-80.69a31.84,31.84,0,0,0-10.91-1.9Z" transform="translate(-17 -125)"/><path class="cls-4" d="M107.07,357.85A32.36,32.36,0,0,1,96,355.92c-25-9.09-34-47.59-20-85.81,11.74-32.26,36.17-54.78,59.42-54.78a32.34,32.34,0,0,1,11.09,1.93c25,9.08,34,47.58,20.05,85.81-11.74,32.25-36.18,54.78-59.42,54.78Z" transform="translate(-17 -125)"/><path class="cls-1" d="M135.35,218.33a29.38,29.38,0,0,1,10.07,1.75c10.9,4,18.9,14.37,22.54,29.29,3.85,15.79,2.32,34.5-4.29,52.67-5.59,15.37-14.54,29.11-25.19,38.71-10.08,9.09-21.24,14.1-31.41,14.1A29.38,29.38,0,0,1,97,353.1c-10.9-4-18.91-14.37-22.54-29.3-3.85-15.79-2.33-34.5,4.29-52.67,5.59-15.36,14.53-29.11,25.18-38.71,10.09-9.09,21.24-14.09,31.42-14.09m0-6c-23.87,0-49.88,22.78-62.24,56.75-14.51,39.85-4.73,80,21.84,89.66a35.43,35.43,0,0,0,12.12,2.11c23.86,0,49.87-22.79,62.24-56.76,14.5-39.84,4.72-80-21.84-89.65a35.19,35.19,0,0,0-12.12-2.11Z" transform="translate(-17 -125)"/><path class="cls-1" d="M172.24,323.55a2.85,2.85,0,0,1-1-.17L122.1,305.49a10,10,0,0,1-6-12.81l3.7-10.19a10,10,0,0,1,12.81-6L180.57,294a2.85,2.85,0,1,1-1.95,5.36l-47.93-17.45a4.29,4.29,0,0,0-5.49,2.56l-3.71,10.19a4.29,4.29,0,0,0,2.56,5.49L173.22,318a2.85,2.85,0,0,1-1,5.53Z" transform="translate(-17 -125)"/><path class="cls-5" d="M337.57,354.15l-158-57.5L131.66,279.2a7.13,7.13,0,0,0-9.14,4.27l-3.71,10.19a7.13,7.13,0,0,0,4.26,9.14l49.17,17.9L329,377.75a7.13,7.13,0,0,0,9.15-4.27l3.71-10.19A7.13,7.13,0,0,0,337.57,354.15Z" transform="translate(-17 -125)"/><path class="cls-6" d="M288.55,426.31a33,33,0,0,1-11.37-2c-12.16-4.42-21.05-15.84-25-32.15-4.08-16.74-2.49-36.51,4.49-55.67,12-33,37-56.05,60.81-56.05a33.21,33.21,0,0,1,11.37,2c25.56,9.3,34.77,48.7,20.53,87.82-12,33-37,56.05-60.81,56.05Z" transform="translate(-17 -125)"/><path class="cls-1" d="M317.46,283.46a30.15,30.15,0,0,1,10.34,1.8c11.19,4.07,19.41,14.74,23.14,30,3.94,16.18,2.38,35.33-4.39,53.93C340.82,385,331.66,399,320.76,408.87c-10.34,9.31-21.78,14.44-32.21,14.44a30.14,30.14,0,0,1-10.34-1.79c-11.19-4.08-19.41-14.75-23.14-30-3.94-16.17-2.38-35.33,4.39-53.93,5.73-15.73,14.89-29.8,25.79-39.63,10.34-9.32,21.78-14.45,32.21-14.45m0-6c-24.4,0-51,23.3-63.63,58C239,376.23,249,417.27,276.16,427.15a36,36,0,0,0,12.39,2.16c24.4,0,51-23.3,63.63-58C367,330.55,357,289.5,329.85,279.62a36,36,0,0,0-12.39-2.16Z" transform="translate(-17 -125)"/><path class="cls-7" d="M324.89,450.09a37.41,37.41,0,0,1-12.75-2.22c-28.57-10.4-38.9-54.37-23-98,6.57-18,17.09-34.19,29.65-45.5,12.16-11,25.74-17,38.24-17a37.16,37.16,0,0,1,12.74,2.22c13.63,5,23.57,17.73,28,36,4.54,18.67,2.77,40.7-5,62-6.56,18-17.09,34.19-29.64,45.5-12.16,11-25.74,17-38.24,17Z" transform="translate(-17 -125)"/><path class="cls-1" d="M357,290.36a34.2,34.2,0,0,1,11.72,2c12.65,4.6,21.92,16.62,26.12,33.85,4.41,18.1,2.67,39.52-4.9,60.31-6.4,17.58-16.63,33.31-28.83,44.3-11.61,10.46-24.48,16.23-36.23,16.23a34.15,34.15,0,0,1-11.72-2c-12.65-4.6-21.93-16.63-26.13-33.85-4.4-18.1-2.66-39.52,4.9-60.31,6.4-17.58,16.64-33.31,28.83-44.3,11.61-10.47,24.48-16.23,36.24-16.23m0-6c-27.11,0-56.66,25.89-70.71,64.48-16.47,45.26-5.36,90.86,24.82,101.85a40,40,0,0,0,13.77,2.4c27.11,0,56.66-25.89,70.7-64.48,16.48-45.27,5.37-90.87-24.81-101.85a40.09,40.09,0,0,0-13.77-2.4Z" transform="translate(-17 -125)"/><ellipse class="cls-1" cx="371.64" cy="329.08" rx="16.3" ry="25.54" transform="translate(-107.14 21.95) rotate(-20)"/><ellipse class="cls-1" cx="98.46" cy="325.38" rx="12.73" ry="19.95" transform="translate(-122.35 -71.7) rotate(-20)"/><rect class="cls-8" width="400" height="400"/></g><g id="Layer_8" data-name="Layer 8"><path class="cls-1" d="M43.76,459.75A29.4,29.4,0,0,1,33.49,458a27.81,27.81,0,0,1-10-6.16c-3.36-3.31-5.24-7-5.58-10.91-.7-8.07,4.64-12.79,10.29-13.28.34,0,.68-.05,1-.05a13.33,13.33,0,0,1,8.31,3.06c.81.64,1.75,1.35,2.83,2.14a9,9,0,0,0,1.82,1h.07l.26,0a8.29,8.29,0,0,0,1.38-.22c-.23-.2-.47-.39-.72-.59-1.88-1.51-3.79-3-5.7-4.54a53.36,53.36,0,0,1-6-5.48,16.66,16.66,0,0,1-4.85-9.92,20.8,20.8,0,0,1,3-12.71A30.27,30.27,0,0,1,37.33,392a41.59,41.59,0,0,1,9.35-5.35A35.18,35.18,0,0,1,57,384a14.16,14.16,0,0,1,1.44-.07A15.3,15.3,0,0,1,68,387.27a14.08,14.08,0,0,1,5.57,9.93c.36,4.17-1.66,9.49-8.43,11.9-1.49.53-3.22,1.08-5.31,1.67-.3.08-.61.18-.92.29q1.79,1.4,3.59,2.91a40.83,40.83,0,0,1,6.75,7.16,21.77,21.77,0,0,1,4.24,11,22.19,22.19,0,0,1-3.6,14.18,28.47,28.47,0,0,1-10,9.24,31.87,31.87,0,0,1-13.11,4.06C45.8,459.7,44.76,459.75,43.76,459.75Z" transform="translate(-17 -125)"/><path class="cls-1" d="M86.63,456.24a12.65,12.65,0,0,1-7.54-2.59,18,18,0,0,1-4.17-4.35,14.81,14.81,0,0,1-2.62-7.12,36.06,36.06,0,0,1,.35-7.76c.33-2.47.79-5.34,1.35-8.51s1.11-6.25,1.7-9.63c.37-2.16.71-4.34,1-6.51l-1.42.14c-.33,0-.67,0-1,0a12.68,12.68,0,0,1-7.34-2.42,16.34,16.34,0,0,1-4.32-4.41,14.28,14.28,0,0,1-2.47-6.78,11.12,11.12,0,0,1,2.18-7.61,12.67,12.67,0,0,1,6.32-4.28A33.45,33.45,0,0,1,74,383.31c1.83-.27,4.32-.59,7.4-.94s7-.73,11.75-1.15c1.12-.09,2.51-.16,4.24-.19h1c1.47,0,3,.06,4.61.17a55.16,55.16,0,0,1,6,.73,22.53,22.53,0,0,1,6.78,2.3,12.64,12.64,0,0,1,6.76,10c.49,5.66-3.26,11.75-11.38,12.52a76,76,0,0,1-7.92.42q-.37,3.18-.85,6.86Q101.7,419,101,424c-.45,3.33-.88,6.43-1.29,9.28l-1,7c-.29,2-.46,3.06-.61,3.77-.57,3.2-2.29,11.5-10.51,12.22C87.31,456.22,87,456.24,86.63,456.24Z" transform="translate(-17 -125)"/><path class="cls-1" d="M118.68,454.14a13.15,13.15,0,0,1-6.77-2,16.39,16.39,0,0,1-4.72-4.28,14.22,14.22,0,0,1-2.84-7.27c-.15-1.66-.13-2.64,1.4-7.64a12.91,12.91,0,0,1-2.76-7c-.59-6.71,4.38-10.45,9.15-12.82.28-.89.59-1.87.92-2.94q.87-2.76,1.83-5.92t1.9-6.24l1.61-5.25c.47-1.55.81-2.67,1-3.34a18.16,18.16,0,0,1,5.74-8.5,17,17,0,0,1,9.62-4.21l.44,0h.52c2.49,0,7.19.88,10.67,6.75a41.48,41.48,0,0,1,3.08,6.62c.88,2.34,1.71,4.86,2.46,7.5.44,1.57.87,3.14,1.26,4.68a12.58,12.58,0,0,1,4,1.67,12.05,12.05,0,0,1,5.58,9.15c.44,5.06-2.3,8.39-5.57,10.64.21,1.68.4,3.29.58,4.83.23,2,.4,3.66.52,5a37.9,37.9,0,0,1,.14,6.58,11.9,11.9,0,0,1-11.11,11.47c-.36,0-.71,0-1.06,0A12.1,12.1,0,0,1,136.05,446a19.65,19.65,0,0,1-2.54-6c-.32-1.24-.57-2.33-.77-3.25l0-.19s-.06-.35-.07-.42c-.81,2.62-1.52,4.8-2.14,6.57-1.59,4.53-3.77,10.74-10.79,11.35C119.38,454.12,119,454.14,118.68,454.14Z" transform="translate(-17 -125)"/><path class="cls-1" d="M165.76,449.56a12.16,12.16,0,0,1-7.6-2.9,19.25,19.25,0,0,1-3.66-3.94,14.6,14.6,0,0,1-2.68-7.19,28,28,0,0,1,.52-7.21c.38-2.23.88-4.84,1.48-7.78.57-2.74,1.16-5.76,1.75-9,.55-3,1-6.12,1.39-9.2.17-1.45.3-2.87.38-4.25a14.58,14.58,0,0,1-2.77-7.16c-.28-3.23.65-7.94,6.7-11.92a35.28,35.28,0,0,1,8.55-3.93,47.3,47.3,0,0,1,10.37-2.06c1-.09,2-.13,3-.13a30.94,30.94,0,0,1,8.62,1.2,24,24,0,0,1,10.44,6,19.66,19.66,0,0,1,5.61,12.33,23.68,23.68,0,0,1-2.43,12.68,25.6,25.6,0,0,1-7.82,9.39c-1.2.89-2.3,1.69-3.3,2.41l.54.38c3.32,2.27,5.71,4,7.33,5.17a27.67,27.67,0,0,1,4.53,3.94,12.72,12.72,0,0,1,3.19,7.27c.51,5.88-3.27,12.21-11.49,12.93-.42,0-.86.05-1.31.05a20.39,20.39,0,0,1-8.37-2,49.47,49.47,0,0,1-7.66-4.38c-1.18-.8-2.35-1.66-3.51-2.55-.25.9-.5,1.73-.75,2.51-2.36,7.1-6.79,8.93-10.1,9.22l-.44,0Z" transform="translate(-17 -125)"/><path class="cls-1" d="M220.82,444.5a12.57,12.57,0,0,1-7.54-2.6,17.79,17.79,0,0,1-4.17-4.34,14.78,14.78,0,0,1-2.62-7.12,35.92,35.92,0,0,1,.35-7.75c.33-2.48.79-5.34,1.36-8.52s1.1-6.25,1.69-9.63c.37-2.16.71-4.35,1-6.51l-1.42.14c-.33,0-.67,0-1,0a12.73,12.73,0,0,1-7.35-2.42,16.6,16.6,0,0,1-4.31-4.41,14.28,14.28,0,0,1-2.47-6.78,11.14,11.14,0,0,1,2.18-7.6,12.57,12.57,0,0,1,6.32-4.29,33,33,0,0,1,5.34-1.14c1.85-.28,4.26-.58,7.4-.94s7-.74,11.75-1.15c1.12-.1,2.51-.16,4.24-.19h1c1.47,0,3,.06,4.61.17a52.76,52.76,0,0,1,6,.73,22.43,22.43,0,0,1,6.78,2.3,12.64,12.64,0,0,1,6.76,10,11.16,11.16,0,0,1-4.78,10.23,13.62,13.62,0,0,1-6.6,2.28,76,76,0,0,1-7.92.42c-.25,2.12-.54,4.41-.85,6.85-.42,3.3-.85,6.6-1.29,9.92s-.88,6.43-1.29,9.29l-1,7c-.29,2-.46,3.07-.61,3.77-.57,3.21-2.29,11.5-10.51,12.22C221.5,444.49,221.16,444.5,220.82,444.5Z" transform="translate(-17 -125)"/><path class="cls-1" d="M244.54,442.72a11.07,11.07,0,0,1-8.29-3.37,11.68,11.68,0,0,1-3.14-7.16,15.65,15.65,0,0,1,.45-5.23h0a9.64,9.64,0,0,0,.18-1.24l0-.5.1-.49A12.7,12.7,0,0,1,238.6,417c0-.12,0-.24,0-.36-.15-1.8,0-3.86,1.26-9.64.76-3.52,1.72-8.18,2.84-13.85,1.09-5.48,2.06-11.84,2.9-18.88l0-.28a12,12,0,0,1,8.46-10.13,22.88,22.88,0,0,1,4.49-.83c.7-.06,1.38-.09,2-.09a17,17,0,0,1,2.82.22,11.35,11.35,0,0,1,9.34,10.47,34,34,0,0,1-.43,7.36c-.36,2.59-.86,5.59-1.51,8.91s-1.44,6.84-2.34,10.32-1.89,6.85-2.91,9.9a53.17,53.17,0,0,1-3.62,8.62,22.94,22.94,0,0,1-1.51,2.4,13.26,13.26,0,0,1,.92,3.83,15.36,15.36,0,0,1-2.24,9.51,17.17,17.17,0,0,1-5.67,5.64,17,17,0,0,1-7.48,2.5C245.43,442.7,245,442.72,244.54,442.72Z" transform="translate(-17 -125)"/><path class="cls-2" d="M46,449.65a20.3,20.3,0,0,1-9-1.06,18,18,0,0,1-6.45-3.89A7.77,7.77,0,0,1,27.89,440c-.13-1.55.27-2.37,1.2-2.45a3.43,3.43,0,0,1,2.31.93c.87.68,1.89,1.46,3.06,2.32a19.89,19.89,0,0,0,4,2.24,10.22,10.22,0,0,0,5,.7,17.66,17.66,0,0,0,6.68-1.92,15.62,15.62,0,0,0,4.84-3.79,6,6,0,0,0,1.61-4.37,7.19,7.19,0,0,0-2.19-4,46.89,46.89,0,0,0-4.89-4.46q-2.87-2.29-5.77-4.59a43.63,43.63,0,0,1-4.93-4.46,7,7,0,0,1-2.18-4,10.64,10.64,0,0,1,1.61-6.64,20.29,20.29,0,0,1,5.18-5.62,31.9,31.9,0,0,1,7.12-4.07A24.93,24.93,0,0,1,57.84,394a5.36,5.36,0,0,1,3.94,1.14,4.37,4.37,0,0,1,1.83,3c0,.62-.56,1.16-1.82,1.61s-2.83.94-4.69,1.47a30.35,30.35,0,0,0-5.56,2.21A42.51,42.51,0,0,0,45.09,407c-1.4,1-2.05,2.08-2,3.11.07.83.77,1.81,2.1,2.95s3,2.43,4.92,3.88,3.93,3,5.93,4.68A31.31,31.31,0,0,1,61.17,427a11.88,11.88,0,0,1,2.36,6,12.15,12.15,0,0,1-2,7.85,18.59,18.59,0,0,1-6.53,6A21.93,21.93,0,0,1,46,449.65Z" transform="translate(-17 -125)"/><path class="cls-2" d="M86.77,446.23a2.69,2.69,0,0,1-1.78-.66,7.8,7.8,0,0,1-1.82-1.92,5,5,0,0,1-.91-2.34,27.72,27.72,0,0,1,.3-5.55q.48-3.52,1.29-8.1t1.7-9.66q.89-5.08,1.5-10.19a82.94,82.94,0,0,0,.6-9.65c-2.53.28-4.93.6-7.19,1s-4.28.65-6,.81a2.86,2.86,0,0,1-1.78-.63,6.45,6.45,0,0,1-1.72-1.77,4.46,4.46,0,0,1-.81-2.08,1.11,1.11,0,0,1,.25-.77,3,3,0,0,1,1.42-.75,24.43,24.43,0,0,1,3.69-.75q2.55-.37,7-.89T94,391.19c.88-.08,2.06-.13,3.55-.16s3.06,0,4.75.13a44.37,44.37,0,0,1,4.82.6,12.58,12.58,0,0,1,3.79,1.23,2.71,2.71,0,0,1,1.6,2.13c.08,1-.73,1.56-2.44,1.71a69.43,69.43,0,0,1-7.32.36q-4.23,0-8.67.33c-.07,1.52-.27,3.63-.58,6.31s-.68,5.68-1.1,8.95-.85,6.56-1.29,9.86-.86,6.37-1.27,9.19-.73,5.16-1,7-.43,2.87-.51,3.14C87.86,444.76,87.34,446.18,86.77,446.23Z" transform="translate(-17 -125)"/><path class="cls-2" d="M118.84,444.13a3.07,3.07,0,0,1-1.81-.54,6.31,6.31,0,0,1-1.83-1.68,4.19,4.19,0,0,1-.89-2.16q-.07-.76,3.46-11.42a4.91,4.91,0,0,1-3.31-.76,3.2,3.2,0,0,1-1.51-2.42q-.14-1.54,7.35-4.63c.13-.33.39-1.15.8-2.46s.91-2.91,1.5-4.79,1.21-3.89,1.86-6,1.28-4.2,1.89-6.19,1.14-3.74,1.61-5.27.8-2.61,1-3.26a8.15,8.15,0,0,1,2.67-3.87,7.24,7.24,0,0,1,4-1.88c.67-.06,1.39.55,2.15,1.84a32.72,32.72,0,0,1,2.32,5q1.19,3.11,2.2,6.7c.68,2.39,1.28,4.7,1.82,6.92s.94,4.08,1.23,5.57c.71-.16,1.39-.34,2-.53a9.82,9.82,0,0,1,1.73-.35,4.36,4.36,0,0,1,2.7.43,2.07,2.07,0,0,1,1,1.6q.12,1.47-6.54,4,.47,2.61.85,5.75c.27,2.1.5,4.09.72,6s.38,3.48.5,4.77a28.75,28.75,0,0,1,.14,4.77,3,3,0,0,1-.65,1.93,2.38,2.38,0,0,1-1.37.51,2.12,2.12,0,0,1-2.05-1.15,9.55,9.55,0,0,1-1.24-2.94c-.28-1.13-.51-2.1-.69-2.92q-.63-3.7-1.23-7.33c-.39-2.42-.8-4.81-1.21-7.17q-3.87,1.35-7.4,2.64c-2.36.86-4.8,1.76-7.32,2.72Q120,444,118.84,444.13Zm8.74-26.29q2.65-1,5.52-1.85c1.9-.56,3.88-1.11,5.92-1.65q-1.29-6.63-2.42-11.53t-2-8.2q-1.35,4.18-3.12,10T127.58,417.84Z" transform="translate(-17 -125)"/><path class="cls-2" d="M165.81,439.55a2.31,2.31,0,0,1-1.39-.7,8.77,8.77,0,0,1-1.73-1.88,4.7,4.7,0,0,1-.91-2.31,20.19,20.19,0,0,1,.41-4.65c.37-2.12.84-4.61,1.43-7.45s1.18-5.9,1.78-9.16,1.1-6.54,1.49-9.84a80,80,0,0,0,.58-9.41,5.4,5.4,0,0,1-1.95-1.78,4.74,4.74,0,0,1-1-2.27c-.07-.77.67-1.67,2.23-2.7a26,26,0,0,1,6.14-2.77,36.56,36.56,0,0,1,8.15-1.61,21.44,21.44,0,0,1,7.93.72,13.86,13.86,0,0,1,6.14,3.49,9.52,9.52,0,0,1,2.73,6.14,13.53,13.53,0,0,1-1.43,7.37,15.57,15.57,0,0,1-4.78,5.78q-4,2.94-6.44,4.6l-3.85,2.57a16.33,16.33,0,0,0-1.84,1.33,1.06,1.06,0,0,0-.44.82,5,5,0,0,0,.61,1.63,13.25,13.25,0,0,0,2.69,3,69.3,69.3,0,0,0,6.79,5.12c3.17,2.18,5.51,3.82,7,4.95a20.55,20.55,0,0,1,3,2.48,2.82,2.82,0,0,1,.77,1.57c.11,1.25-.7,1.94-2.4,2.09a10,10,0,0,1-4.72-1.11,39.48,39.48,0,0,1-6.1-3.5,62.91,62.91,0,0,1-6.31-4.93,55.49,55.49,0,0,1-5.36-5.4,21,21,0,0,1-3.29-4.88c-.44,2.07-.9,4.4-1.38,7s-1,5-1.51,7.41a58.42,58.42,0,0,1-1.56,5.89Q166.52,439.49,165.81,439.55Zm6.73-26.89a32.44,32.44,0,0,1,4.26-3.23l5-3.22a43.13,43.13,0,0,0,4.67-3.46,15,15,0,0,0,3.37-4,8,8,0,0,0,1-4.79q-.42-4.82-8.81-4.08a25.24,25.24,0,0,0-8.69,2.72,7.52,7.52,0,0,1,1.05,3Q174.79,400.71,172.54,412.66Z" transform="translate(-17 -125)"/><path class="cls-2" d="M221,434.49a2.69,2.69,0,0,1-1.78-.66,7.8,7.8,0,0,1-1.82-1.92,5,5,0,0,1-.91-2.35,27.65,27.65,0,0,1,.3-5.54q.48-3.52,1.29-8.1t1.7-9.66q.88-5.08,1.5-10.19a82.94,82.94,0,0,0,.6-9.65c-2.53.28-4.93.6-7.2,1s-4.27.65-6,.81a2.86,2.86,0,0,1-1.78-.63,6.6,6.6,0,0,1-1.72-1.77,4.46,4.46,0,0,1-.81-2.08,1.11,1.11,0,0,1,.25-.77,3,3,0,0,1,1.42-.75,24.43,24.43,0,0,1,3.69-.75q2.55-.37,7.05-.89t11.49-1.13c.88-.07,2.06-.12,3.55-.15s3.07,0,4.75.13a44.37,44.37,0,0,1,4.82.6,12.58,12.58,0,0,1,3.79,1.23,2.7,2.7,0,0,1,1.6,2.13c.08,1-.73,1.56-2.44,1.7a66.59,66.59,0,0,1-7.32.37q-4.23,0-8.67.33c-.07,1.52-.27,3.62-.58,6.31s-.68,5.68-1.1,9-.85,6.56-1.29,9.86-.86,6.36-1.27,9.19-.73,5.16-1,7-.43,2.87-.51,3.14C222.05,433,221.53,434.44,221,434.49Z" transform="translate(-17 -125)"/><path class="cls-2" d="M245.07,432.7c-.83.07-1.36,0-1.59-.25a1.87,1.87,0,0,1-.41-1.14,5.65,5.65,0,0,1,.19-1.9,19.66,19.66,0,0,0,.43-2.7A2.63,2.63,0,0,1,245,424.8a7.93,7.93,0,0,1,3-.74,5.8,5.8,0,0,1,2.52.17c.48.22.77.77.85,1.65a5.35,5.35,0,0,1-.77,3.36,7.37,7.37,0,0,1-2.41,2.4A7.12,7.12,0,0,1,245.07,432.7Zm5.27-15.89a3.26,3.26,0,0,1-1.26-.08c-.33-.1-.51-.41-.56-.93a33.89,33.89,0,0,1,1.07-6.63c.78-3.6,1.74-8.27,2.88-14s2.15-12.31,3-19.64c.16-1.11.63-1.78,1.39-2a13.19,13.19,0,0,1,2.55-.46,9.59,9.59,0,0,1,2.31,0c.61.11.95.6,1,1.48a27,27,0,0,1-.38,5.12c-.33,2.43-.81,5.23-1.42,8.39s-1.34,6.39-2.2,9.7-1.76,6.4-2.72,9.25a43.31,43.31,0,0,1-2.91,7C252.15,415.79,251.22,416.74,250.34,416.81Z" transform="translate(-17 -125)"/></g></svg>