<svg id="Layer_5" data-name="Layer 5" xmlns="http://www.w3.org/2000/svg" viewBox="0 0 374.74 192.31"><defs><style>.cls-1{fill:none;}.cls-2{fill:#6e7da2;}.cls-3{fill:#db996c;}</style></defs><path class="cls-1" d="M268.89,226.47a19.6,19.6,0,0,0-3.27,3.88,40.15,40.15,0,0,0-3.22,5.82,33.78,33.78,0,0,0-2.11,6,18.15,18.15,0,0,0-.41,2.17,6.39,6.39,0,0,0,.58-.35,20.93,20.93,0,0,0,4-3.4,26.53,26.53,0,0,0,3.68-4.95,23,23,0,0,0,1.91-4.14c-.18-.63-.34-1.3-.49-2C269.39,228.51,269.16,227.51,268.89,226.47Z" transform="translate(-42.96 -92.27)"/><path class="cls-1" d="M331,154.74a31.34,31.34,0,0,0-2.46-7.67,30.09,30.09,0,0,0-4-6.47c-1.44-1.73-2.72-2.5-3.82-2.31a13,13,0,0,0-7.38,4.54,40.76,40.76,0,0,0-6.16,9.62,75.25,75.25,0,0,0-6.75,25.07,42.79,42.79,0,0,0,.33,11,29.24,29.24,0,0,0,3.61,9.86c1.78,3,3.62,4.39,5.49,4.06q5.13-.9,9.43-6a46.65,46.65,0,0,0,7.34-12.55,66.66,66.66,0,0,0,4.22-15.25A43.15,43.15,0,0,0,331,154.74Z" transform="translate(-42.96 -92.27)"/><path class="cls-1" d="M221.35,240.48a36.47,36.47,0,0,0-2.35,6.05c-.17.58-.29,1.09-.38,1.53a9.43,9.43,0,0,0,1.49-1.16,23.28,23.28,0,0,0,4.46-6,24.9,24.9,0,0,0,2.72-8.14,7.24,7.24,0,0,1,.66-2.19,24,24,0,0,0-3,3.73A50.29,50.29,0,0,0,221.35,240.48Z" transform="translate(-42.96 -92.27)"/><path class="cls-1" d="M302.23,233.41a36.49,36.49,0,0,0-2.36,6c-.17.59-.29,1.1-.37,1.54a9.43,9.43,0,0,0,1.48-1.16,23.34,23.34,0,0,0,4.46-6,24.85,24.85,0,0,0,2.72-8.13,7.3,7.3,0,0,1,.66-2.2,25.11,25.11,0,0,0-3.05,3.73A51.71,51.71,0,0,0,302.23,233.41Z" transform="translate(-42.96 -92.27)"/><path class="cls-1" d="M175.37,174.41a18.84,18.84,0,0,0-5.66-4.54,9.24,9.24,0,0,0-5.84-1.19q-6.12,1.08-11.62,8.62a56.68,56.68,0,0,0-8.46,17.78,69.8,69.8,0,0,0,15.32-1.16,37.43,37.43,0,0,0,14.24-5.33q5.81-3.84,5-8.31A12.45,12.45,0,0,0,175.37,174.41Z" transform="translate(-42.96 -92.27)"/><path class="cls-2" d="M108.2,177.56a32.67,32.67,0,0,0-8-7.55q-4.34-2.82-7.15-2.32a14.94,14.94,0,0,0-3.85,1.36A18.24,18.24,0,0,0,84,173.54a65.23,65.23,0,0,0-6.88,10.35,206.31,206.31,0,0,0-9,18.64q-5.1,11.73-11.45,29.91l-.49.09q2-13.67,3.23-27.61t1.63-26.56q.42-12.62.15-22.37A110.66,110.66,0,0,0,60,140.77a14.7,14.7,0,0,0-2.8-6.17,22.14,22.14,0,0,0-5.06-5c-1.88-1.31-3.54-1.85-5-1.6q-4,.7-2.83,7.16a142,142,0,0,1,1.74,17.6q.48,10.5.32,22.63t-.65,24.34q-.51,12.21-1.17,22.9t-1.24,18.13q-.24,3.45-.36,5.69a18.13,18.13,0,0,0,.2,4.06,8.42,8.42,0,0,0,2.35,4.11,19,19,0,0,0,4.37,3.49q2.37,1.38,3.69,1.14c1.11-.19,2.52-2,4.25-5.44s3.68-7.81,5.87-13.15,4.48-11,6.9-17S75.49,212,78,206.59a95.56,95.56,0,0,1,7.44-13.42c2.45-3.56,4.71-5.52,6.81-5.89a5.15,5.15,0,0,1,4.2,1.05A7.68,7.68,0,0,1,99,193.26a50.94,50.94,0,0,1,.3,12.83q-.65,7.53-1.89,15.43t-2,14.6a38.49,38.49,0,0,0-.08,10.68q.87,5,4.52,4.32c2-.35,3.7-1.9,5.14-4.66A48.44,48.44,0,0,0,108.7,236a126.53,126.53,0,0,0,2.62-13.68q1-7.34,1.46-14.42t.42-12.61a53.53,53.53,0,0,0-.47-8A22.16,22.16,0,0,0,108.2,177.56Z" transform="translate(-42.96 -92.27)"/><path class="cls-2" d="M187.61,169.78a35.16,35.16,0,0,0-7.45-7.9,33.59,33.59,0,0,0-9.46-5.24,19.35,19.35,0,0,0-10-.88,25.41,25.41,0,0,0-12.11,5.8,48.68,48.68,0,0,0-9.82,11.54,73.91,73.91,0,0,0-7.12,14.82,73,73,0,0,0-3.7,15.75,50.15,50.15,0,0,0,.24,14.45,26.72,26.72,0,0,0,6.18,13.25,27.18,27.18,0,0,0,12,7.87,31.72,31.72,0,0,0,15.77.88,37,37,0,0,0,9.75-3.25,58.13,58.13,0,0,0,9-5.43,31.18,31.18,0,0,0,6.42-6.16c1.56-2.1,2.22-3.86,2-5.3q-.58-3.3-4.88-2.55a24.28,24.28,0,0,0-4.8,2.3q-3.81,2.11-9.17,4.6a45.87,45.87,0,0,1-11.32,3.53q-8.26,1.45-12.38-1.06t-5.13-8.3a43.93,43.93,0,0,1,0-13.32,75.54,75.54,0,0,0,20.65-.91,58.26,58.26,0,0,0,10.48-3A43,43,0,0,0,182.84,196a24,24,0,0,0,7-7.64,14.28,14.28,0,0,0,1.51-9.82A22.71,22.71,0,0,0,187.61,169.78Zm-14.26,18.81a37.43,37.43,0,0,1-14.24,5.33,69.8,69.8,0,0,1-15.32,1.16,56.68,56.68,0,0,1,8.46-17.78q5.5-7.55,11.62-8.62a9.24,9.24,0,0,1,5.84,1.19,18.84,18.84,0,0,1,5.66,4.54,12.45,12.45,0,0,1,3,5.87Q179.15,184.75,173.35,188.59Z" transform="translate(-42.96 -92.27)"/><path class="cls-2" d="M219.27,215.65a23,23,0,0,1,2.28-1.51c.2-1.49.4-3.06.59-4.73q1.13-9.57,2-21.67t1.08-25.35q.21-13.26-.55-26.35a215.51,215.51,0,0,0-2.79-24.5,12.1,12.1,0,0,0-3.08-5.85,26.7,26.7,0,0,0-5.34-4.69c-1.87-1.21-3.29-1.72-4.29-1.55-1.43.26-2.31.75-2.63,1.49a6.27,6.27,0,0,0-.08,3.43A214,214,0,0,1,209.16,128q.79,12.74.88,25.77t-.38,25q-.45,11.94-1,21.59c-.34,6.43-.66,11.6-.93,15.51a52.69,52.69,0,0,0-.27,6.7,7.29,7.29,0,0,0,2.12,3.3,1.29,1.29,0,0,0,.17.16c.77-1.14,1.57-2.26,2.4-3.32A38.12,38.12,0,0,1,219.27,215.65Z" transform="translate(-42.96 -92.27)"/><path class="cls-2" d="M259,212.42a21.85,21.85,0,0,1,2.51-1.71c.38-2.49.76-5.31,1.13-8.44q1.13-9.59,2-21.68t1.07-25.35q.22-13.26-.55-26.34a213,213,0,0,0-2.79-24.5,12.06,12.06,0,0,0-3.07-5.86A26.75,26.75,0,0,0,254,93.85c-1.87-1.2-3.29-1.72-4.28-1.54-1.44.25-2.32.75-2.64,1.49a6.24,6.24,0,0,0-.08,3.42,214,214,0,0,1,2.72,23.66q.8,12.74.88,25.78t-.37,25q-.47,11.94-1,21.58t-.93,15.52a57.34,57.34,0,0,0-.27,6.7,7.36,7.36,0,0,0,2.12,3.29,22.1,22.1,0,0,0,1.74,1.62c.08-.11.14-.22.21-.32A35,35,0,0,1,259,212.42Z" transform="translate(-42.96 -92.27)"/><path class="cls-2" d="M333.53,188.93a8.67,8.67,0,0,1,6.27-3.79l.22,0h.3a6.58,6.58,0,0,1,1.19.12,62.72,62.72,0,0,0,3.37-11.63,57.12,57.12,0,0,0,.08-20.82,34.16,34.16,0,0,0-5.61-13.94,26.6,26.6,0,0,0-10.1-8.88,19.54,19.54,0,0,0-12.33-1.75,25.28,25.28,0,0,0-12.2,5.82,43.8,43.8,0,0,0-9.34,11.37A68.5,68.5,0,0,0,289.09,160,77,77,0,0,0,286,175.54a53.89,53.89,0,0,0,.45,14.17,37.8,37.8,0,0,0,5.09,13.86,25.89,25.89,0,0,0,6.26,6.93c.76-.69,1.53-1.35,2.31-1.93a16.94,16.94,0,0,1,8.59-3.62c.37,0,.73,0,1.1,0,3.69,0,7.16,1.59,10.31,4.71.26.27.49.53.73.79a36.18,36.18,0,0,0,5.38-3.65,47,47,0,0,0,6.82-6.91,8.47,8.47,0,0,1-1.59-4.12A9.82,9.82,0,0,1,333.53,188.93Zm-6.88-5a46.65,46.65,0,0,1-7.34,12.55q-4.31,5.1-9.43,6c-1.87.33-3.71-1-5.49-4.06a29.24,29.24,0,0,1-3.61-9.86,42.79,42.79,0,0,1-.33-11,75.25,75.25,0,0,1,6.75-25.07,40.76,40.76,0,0,1,6.16-9.62,13,13,0,0,1,7.38-4.54c1.1-.19,2.38.58,3.82,2.31a30.09,30.09,0,0,1,4,6.47,31.34,31.34,0,0,1,2.46,7.67,43.15,43.15,0,0,1-.11,13.92A66.66,66.66,0,0,1,326.65,183.91Z" transform="translate(-42.96 -92.27)"/><path class="cls-1" d="M243.68,238.63c.18-.76.39-1.54.62-2.32,0-.35,0-.69-.06-1a7.52,7.52,0,0,0-.52-2.1,14.49,14.49,0,0,0,.6-2.13,17.35,17.35,0,0,0,.26-4.7,12.27,12.27,0,0,0-1.9-5.45,25.18,25.18,0,0,0-3.42-4.23c-3.15-3.13-6.61-4.71-10.3-4.71-.37,0-.74,0-1.1,0a15.48,15.48,0,0,0-6.31,2.12,23,23,0,0,0-2.28,1.51,38.12,38.12,0,0,0-7.09,7.06c-.83,1.06-1.63,2.18-2.4,3.32a62.42,62.42,0,0,0-3.41,5.66,50,50,0,0,0-4,10,28.7,28.7,0,0,0-1.07,10.05,12.85,12.85,0,0,0,3.47,7.54,20.17,20.17,0,0,0,6.42,4.77,15.86,15.86,0,0,0,6.82,1.64,11.64,11.64,0,0,0,1.18-.05c3.75-.33,7.33-2.13,10.82-5.47a11.6,11.6,0,0,0,.83,1.17,7.12,7.12,0,0,0,5.56,2.77q.3,0,.6,0c2.64-.23,5.77-2.22,5.92-7,.13-2.53.27-4.87.44-7a17.24,17.24,0,0,1-.51-2.9A26.86,26.86,0,0,1,243.68,238.63Zm-4.27-8.53a11.41,11.41,0,0,1-1.38,3.49,3.81,3.81,0,0,1,1.22,2.14,42.3,42.3,0,0,1-.34,8.36q-.63,5.19-1,12.74c0,1.44-.5,2.2-1.36,2.27a2.11,2.11,0,0,1-1.85-.91,8.1,8.1,0,0,1-1.35-2.61,31,31,0,0,1-.88-3.2,20.8,20.8,0,0,1-.45-2.64q-6.78,10.35-13.29,10.92a10.42,10.42,0,0,1-5.41-1.12,15.25,15.25,0,0,1-4.84-3.59,8,8,0,0,1-2.22-4.64,23.45,23.45,0,0,1,.91-8.28,44.72,44.72,0,0,1,3.62-9,54.53,54.53,0,0,1,5.32-8.23,33.4,33.4,0,0,1,6.15-6.15,12,12,0,0,1,6-2.64q3.86-.34,7.45,3.23a20.82,20.82,0,0,1,2.71,3.34,7.3,7.3,0,0,1,1.15,3.23A11.82,11.82,0,0,1,239.41,230.1Z" transform="translate(-42.96 -92.27)"/><path class="cls-1" d="M229.69,224.05a7.92,7.92,0,0,0-4.47,2.25,27.15,27.15,0,0,0-4.46,5.22,55,55,0,0,0-3.9,6.77,41.22,41.22,0,0,0-2.68,6.89,15.91,15.91,0,0,0-.73,5.5,2.84,2.84,0,0,0,1.41,2.25,4.56,4.56,0,0,0,2.91.65,10,10,0,0,0,5.73-3,27.88,27.88,0,0,0,5.45-7.25,29.71,29.71,0,0,0,3.29-9.83,2.13,2.13,0,0,1,1.31-1.75Q232.86,223.78,229.69,224.05Zm-2.4,8.73a24.9,24.9,0,0,1-2.72,8.14,23.28,23.28,0,0,1-4.46,6,9.43,9.43,0,0,1-1.49,1.16c.09-.44.21-.95.38-1.53a36.47,36.47,0,0,1,2.35-6.05,50.29,50.29,0,0,1,3.55-6.16,24,24,0,0,1,3-3.73A7.24,7.24,0,0,0,227.29,232.78Z" transform="translate(-42.96 -92.27)"/><path class="cls-1" d="M283.23,234.62a48.29,48.29,0,0,1,2.22-6.22,7.14,7.14,0,0,0-.37-.73l0-.52a28.73,28.73,0,0,0-2-8.25,19.53,19.53,0,0,0-5.07-7.36,12.32,12.32,0,0,0-8.3-3.12c-.42,0-.84,0-1.27.06a16.42,16.42,0,0,0-6.83,2.23,21.85,21.85,0,0,0-2.51,1.71,35,35,0,0,0-7,7.6c-.07.1-.13.21-.21.32a58.48,58.48,0,0,0-4.94,8.87,56.28,56.28,0,0,0-2.64,7.1c-.23.78-.44,1.56-.62,2.32a26.86,26.86,0,0,0-.85,8.53,17.24,17.24,0,0,0,.51,2.9,16.49,16.49,0,0,0,2.22,4.89,16.79,16.79,0,0,0,5.86,5.42,14.12,14.12,0,0,0,6.9,1.79c.42,0,.85,0,1.28-.06a13.58,13.58,0,0,0,3.35-.74,36.76,36.76,0,0,1-1.12,4.23,9.58,9.58,0,0,1-1.54,3c-.12.15-.18.18-.28.2h-.13a1.12,1.12,0,0,1-.64-.19,14.34,14.34,0,0,1-2.43-1.9c-1-.94-1.84-1.79-2.57-2.54a7.74,7.74,0,0,0-5.38-2.57h-.31l-.21,0c-1.42.12-4,.85-5.71,4.34a10.22,10.22,0,0,0-1,5.41,12,12,0,0,0,3.75,7.38,20,20,0,0,0,7.33,4.56,21.21,21.21,0,0,0,7.42,1.3c.71,0,1.44,0,2.17-.1a15.11,15.11,0,0,0,9.4-4c2.25-2.17,4-5.3,5.36-9.59a110.29,110.29,0,0,0,3.24-14.62c.71-3.94,1.43-7.3,2.15-10.05a13,13,0,0,1-.25-1.52A28.49,28.49,0,0,1,283.23,234.62Zm-2.8,1q-1,2.67-2.37,7.46a121.4,121.4,0,0,0-2.73,12.23,107.18,107.18,0,0,1-3.09,14q-1.62,5.14-4.05,7.48a10.2,10.2,0,0,1-6.37,2.67,16.91,16.91,0,0,1-7.42-.91,14.87,14.87,0,0,1-5.52-3.4,7.15,7.15,0,0,1-2.32-4.28,5.3,5.3,0,0,1,.58-2.82c.46-1,1-1.47,1.63-1.52s1.15.32,1.91,1.08,1.64,1.64,2.65,2.62a18.51,18.51,0,0,0,3.29,2.56,6.1,6.1,0,0,0,3.83.92,5.24,5.24,0,0,0,3.71-2,14.4,14.4,0,0,0,2.41-4.57,42.46,42.46,0,0,0,1.47-5.83c.37-2,.67-4,.92-5.77s.46-3.27.65-4.38c-4.16,3.71-7.65,5.68-10.44,5.92a9.06,9.06,0,0,1-5.32-1.13,11.73,11.73,0,0,1-4.14-3.82,11.5,11.5,0,0,1-1.9-5.45,22.53,22.53,0,0,1,.73-6.93,48.94,48.94,0,0,1,3-8.54,52.13,52.13,0,0,1,4.7-8.4,29.93,29.93,0,0,1,6-6.52,12.4,12.4,0,0,1,6.66-2.87,7.41,7.41,0,0,1,5.81,1.82,14.66,14.66,0,0,1,3.76,5.5,23.29,23.29,0,0,1,1.68,6.8c0,.35,0,.65,0,.91a3.69,3.69,0,0,1-.07.65,5,5,0,0,1,1.27,2.74A10.33,10.33,0,0,1,280.43,235.67Z" transform="translate(-42.96 -92.27)"/><path class="cls-1" d="M273.6,224.74a9.7,9.7,0,0,0-1.39-3.12,2.48,2.48,0,0,0-2.34-1.09,7.63,7.63,0,0,0-4.18,2.1,24.66,24.66,0,0,0-4.23,4.94,46.07,46.07,0,0,0-3.62,6.53,39.19,39.19,0,0,0-2.41,6.9,19.13,19.13,0,0,0-.6,6.06,3.13,3.13,0,0,0,1.15,2.27,3.35,3.35,0,0,0,2.48.69,10.61,10.61,0,0,0,4.68-1.79,26,26,0,0,0,5-4.19,32.23,32.23,0,0,0,4.37-5.87,27.14,27.14,0,0,0,2.82-6.72,19.31,19.31,0,0,1-.82-3C274.24,227.24,273.94,226,273.6,224.74Zm-5.43,10.91a26.53,26.53,0,0,1-3.68,4.95,20.93,20.93,0,0,1-4,3.4,6.39,6.39,0,0,1-.58.35,18.15,18.15,0,0,1,.41-2.17,33.78,33.78,0,0,1,2.11-6,40.15,40.15,0,0,1,3.22-5.82,19.6,19.6,0,0,1,3.27-3.88c.27,1,.5,2,.7,3,.15.74.31,1.41.49,2A23,23,0,0,1,268.17,235.65Z" transform="translate(-42.96 -92.27)"/><path class="cls-1" d="M310.56,217a8,8,0,0,0-4.47,2.25,27.28,27.28,0,0,0-4.46,5.23,54.32,54.32,0,0,0-3.9,6.77,41,41,0,0,0-2.67,6.88,15.7,15.7,0,0,0-.73,5.5,2.81,2.81,0,0,0,1.4,2.25,4.56,4.56,0,0,0,2.91.65,10.07,10.07,0,0,0,5.74-3,28.33,28.33,0,0,0,5.45-7.25,29.78,29.78,0,0,0,3.28-9.83,2.12,2.12,0,0,1,1.32-1.76Q313.72,216.7,310.56,217Zm-2.4,8.74a24.85,24.85,0,0,1-2.72,8.13,23.34,23.34,0,0,1-4.46,6A9.43,9.43,0,0,1,299.5,241c.08-.44.2-1,.37-1.54a36.49,36.49,0,0,1,2.36-6,51.71,51.71,0,0,1,3.54-6.17,25.11,25.11,0,0,1,3.05-3.73A7.3,7.3,0,0,0,308.16,225.71Z" transform="translate(-42.96 -92.27)"/><path class="cls-1" d="M309.83,204.9c-.37,0-.73,0-1.1,0a16.94,16.94,0,0,0-8.59,3.62c-.78.58-1.55,1.24-2.31,1.93a40.88,40.88,0,0,0-4.78,5.13,60.49,60.49,0,0,0-5.81,9c-.66,1.25-1.24,2.51-1.79,3.78a48.29,48.29,0,0,0-2.22,6.22,28.49,28.49,0,0,0-1.08,10,13,13,0,0,0,.25,1.52,13.38,13.38,0,0,0,3.23,6,20.21,20.21,0,0,0,6.42,4.77,16,16,0,0,0,6.81,1.64c.4,0,.79,0,1.18-.05,3.75-.33,7.34-2.13,10.83-5.47a10.74,10.74,0,0,0,.83,1.17,7.11,7.11,0,0,0,5.56,2.76l.6,0c2.63-.23,5.76-2.23,5.91-7s.57-9.08,1-12.39a45.85,45.85,0,0,0,.37-9.39,7.12,7.12,0,0,0-.52-2.09,14.61,14.61,0,0,0,.6-2.14,16.51,16.51,0,0,0,.26-4.69,12.16,12.16,0,0,0-1.89-5.45,23.56,23.56,0,0,0-2.69-3.45c-.24-.26-.47-.52-.73-.79C317,206.49,313.52,204.9,309.83,204.9Zm6.78,8.26a19.92,19.92,0,0,1,2.71,3.35,7.26,7.26,0,0,1,1.15,3.22,11.87,11.87,0,0,1-.19,3.3,11.61,11.61,0,0,1-1.38,3.49,3.82,3.82,0,0,1,1.23,2.13,42.51,42.51,0,0,1-.35,8.37q-.63,5.19-1,12.73c0,1.44-.5,2.2-1.36,2.28a2.12,2.12,0,0,1-1.85-.92,8.45,8.45,0,0,1-1.35-2.6c-.35-1.06-.64-2.13-.88-3.2a21.4,21.4,0,0,1-.45-2.64Q306.11,253,299.6,253.58a10.38,10.38,0,0,1-5.4-1.12,15.14,15.14,0,0,1-4.85-3.59,8,8,0,0,1-2.22-4.64,23.52,23.52,0,0,1,.92-8.28,44.35,44.35,0,0,1,3.61-9,54.68,54.68,0,0,1,5.33-8.24,33.1,33.1,0,0,1,6.15-6.15,12.12,12.12,0,0,1,6-2.64C311.74,209.71,314.22,210.78,316.61,213.16Z" transform="translate(-42.96 -92.27)"/><path class="cls-1" d="M350.72,201.93a6.74,6.74,0,0,0,.62-3.46,14.46,14.46,0,0,0-1.85-5.58,23.26,23.26,0,0,0-3.28-4.67,9,9,0,0,0-4.7-3,6.58,6.58,0,0,0-1.19-.12H340l-.22,0a8.67,8.67,0,0,0-6.27,3.79,9.82,9.82,0,0,0-2,6.79,8.47,8.47,0,0,0,1.59,4.12,13.5,13.5,0,0,0,1.11,1.39,18.3,18.3,0,0,0,1.47,1.45c-4.19,1.07-5.19,6.24-5.6,8.36-.31,1.77-.69,4.1-1.14,7l-1.41,9.07c-.5,3.23-.95,6.3-1.37,9.2s-.74,5.36-1,7.36a20.7,20.7,0,0,0-.37,4.39,8.31,8.31,0,0,0,2.56,5.36,7.62,7.62,0,0,0,5.37,2.22l.68,0c2.64-.24,6.13-1.88,7.74-8.46,1.17-5,2.23-9.84,3.18-14.32s1.7-8.43,2.23-11.79a37.48,37.48,0,0,0,.62-8.52,10.73,10.73,0,0,0-1.67-4.79,13.43,13.43,0,0,0-1-1.36h.11a7.29,7.29,0,0,0,4.25-1.86A6.42,6.42,0,0,1,350.72,201.93Zm-9.14,18.29c-.53,3.27-1.25,7.11-2.19,11.54s-2,9.17-3.16,14.22q-1.08,4.41-3.31,4.6a2.63,2.63,0,0,1-2.14-.8,3.35,3.35,0,0,1-1-2.2c0-.22.1-1.33.35-3.31s.59-4.41,1-7.29.87-5.94,1.36-9.15l1.41-9.05c.45-2.83.82-5.12,1.13-6.88.55-2.87,1.26-4.34,2.11-4.41a3.13,3.13,0,0,1,2.23.75,8.12,8.12,0,0,1,1.91,2.12,5.73,5.73,0,0,1,.92,2.56A33.58,33.58,0,0,1,341.58,220.22Zm4.14-19.7a2.4,2.4,0,0,1-1.57.82,5.39,5.39,0,0,1-3.14-.93,13.26,13.26,0,0,1-3.12-2.53,4.8,4.8,0,0,1-1.43-2.6,4.87,4.87,0,0,1,1.08-3.37,3.86,3.86,0,0,1,2.7-1.79c.57-.05,1.33.44,2.29,1.48a18.42,18.42,0,0,1,2.56,3.66,9.72,9.72,0,0,1,1.27,3.65A2,2,0,0,1,345.72,200.52Z" transform="translate(-42.96 -92.27)"/><path class="cls-1" d="M386.3,240.56a14.85,14.85,0,0,0,.35-2.26l0-.25.05-.24a7.9,7.9,0,0,1,3.71-5.38c.21-1,.42-2.05.6-3.09.53-3.09.93-6,1.18-8.74a40.86,40.86,0,0,0,.16-6.9,15.56,15.56,0,0,0-2.65-7.37,18.7,18.7,0,0,0-5.22-5.23,12,12,0,0,0-6.72-2.15c-.32,0-.63,0-1,0a9.63,9.63,0,0,0-3.64,1.14,14.56,14.56,0,0,0-3.77,3.07,38.56,38.56,0,0,0-4.08,5.48c-.06.09-.11.18-.17.26a10.53,10.53,0,0,0-1.79-3.47,13.56,13.56,0,0,0-3.77-3.4,9.47,9.47,0,0,0-4.93-1.45q-.37,0-.75,0a6.25,6.25,0,0,0-3.21,1.28,6.42,6.42,0,0,0-1.88,2.53,9,9,0,0,0-.59,1.89,22.18,22.18,0,0,0-.11,6.13,59.14,59.14,0,0,1,0,10.22,86.36,86.36,0,0,1-1.3,9.36c-.58,2.91-1.11,5.31-1.56,7.15-.75,3.08-.85,4.17-.77,5.09a9.3,9.3,0,0,0,1.9,4.66,13.92,13.92,0,0,0,3.22,3.19,8.18,8.18,0,0,0,4.72,1.64,5.83,5.83,0,0,0,.59,0,7,7,0,0,0,4.55-2.41,17,17,0,0,0,2.52-3.74c3.26-6.33,5.86-11.35,8-15.34s3.79-7.11,5.1-9.38l.2-.34c0,.24-.08.48-.13.72-.44,2.35-1,4.78-1.66,7.22-.71,2.63-1.33,5.11-1.84,7.36a22.61,22.61,0,0,0-.67,6.9c.42,4.82,3.75,7,6.87,7l.65,0c2-.17,4.9-1.24,7.24-5.33.15-.26.28-.54.42-.81a9.6,9.6,0,0,1-.2-1.25A11.62,11.62,0,0,1,386.3,240.56Zm-2.16-3.48a30.54,30.54,0,0,1-2.73,6.8c-1,1.79-2.13,2.73-3.33,2.84s-2-.69-2.11-2.41a18.08,18.08,0,0,1,.57-5.35q.73-3.32,1.79-7.15c.69-2.57,1.28-5.11,1.75-7.62a25,25,0,0,0,.44-6.78,11.75,11.75,0,0,0-.85-3.33c-.48-1.2-1.15-1.76-2-1.68a3.49,3.49,0,0,0-1.59.57,8.33,8.33,0,0,0-2.05,2.21c-.83,1.13-1.91,2.87-3.26,5.2s-3.09,5.52-5.21,9.57-4.78,9.16-8,15.37a12.44,12.44,0,0,1-1.71,2.61,2.3,2.3,0,0,1-1.35.85,3.17,3.17,0,0,1-2-.73,8.84,8.84,0,0,1-2-2,4.61,4.61,0,0,1-1-2.16,17.33,17.33,0,0,1,.65-3.47q.7-2.86,1.6-7.35a91.37,91.37,0,0,0,1.38-9.92,64.2,64.2,0,0,0,0-11.09q-.56-6.25,1.25-6.41a4.39,4.39,0,0,1,2.65.72,8.59,8.59,0,0,1,2.39,2.16,5.39,5.39,0,0,1,1.16,2.88,35.63,35.63,0,0,1-.18,5.28c-.22,2.5-.55,5.24-1,8.25s-1,5.86-1.63,8.56l.26,0q3.78-8.17,6.63-13.52c1.9-3.57,3.54-6.41,4.91-8.55a34.37,34.37,0,0,1,3.51-4.75,10,10,0,0,1,2.45-2.07,4.85,4.85,0,0,1,1.76-.59,6.93,6.93,0,0,1,4.48,1.29,13.94,13.94,0,0,1,3.83,3.86,10.46,10.46,0,0,1,1.82,5,37,37,0,0,1-.16,6c-.24,2.58-.61,5.36-1.13,8.34A79.32,79.32,0,0,1,384.14,237.08Z" transform="translate(-42.96 -92.27)"/><path class="cls-1" d="M417.65,180.84a6.46,6.46,0,0,0-5.29-6.12,12.69,12.69,0,0,0-2.12-.16c-.53,0-1.1,0-1.69.07a19.67,19.67,0,0,0-3.78.69,7.19,7.19,0,0,0-5.07,6.28l0,.13c-.94,7.94-2,15.1-3.27,21.28s-2.31,11.49-3.16,15.38c-1.34,6.16-1.36,7.78-1.27,8.81a6.33,6.33,0,0,0,1.82,4,11,11,0,0,0-3.18,1.12l-.18.11a7.9,7.9,0,0,0-3.71,5.38l-.05.24,0,.25a14.85,14.85,0,0,1-.35,2.26,11.62,11.62,0,0,0-.33,3.75,9.6,9.6,0,0,0,.2,1.25,6.57,6.57,0,0,0,1.62,3,6.35,6.35,0,0,0,4.79,1.85c.3,0,.64,0,1-.05a12.77,12.77,0,0,0,5.62-1.88,13.07,13.07,0,0,0,4.29-4.27,10.83,10.83,0,0,0,1.58-6.78,7,7,0,0,0-3-5.43,12,12,0,0,0,4.32-4.86,51.61,51.61,0,0,0,3.57-8.52c1.08-3.24,2.12-6.78,3.09-10.51s1.81-7.45,2.5-11,1.23-6.75,1.61-9.51A32.84,32.84,0,0,0,417.65,180.84Zm-18.4,60.75a8,8,0,0,1-2.66,2.65,7.7,7.7,0,0,1-3.43,1.16c-.92.08-1.5,0-1.75-.28a2,2,0,0,1-.46-1.25,6.26,6.26,0,0,1,.21-2.09,21.56,21.56,0,0,0,.47-3,2.92,2.92,0,0,1,1.41-2.11,8.73,8.73,0,0,1,3.34-.81,6.27,6.27,0,0,1,2.78.19c.54.24.85.85.94,1.82A5.81,5.81,0,0,1,399.25,241.59Zm13-54.66c-.37,2.67-.9,5.76-1.57,9.24s-1.48,7.05-2.43,10.7-1.95,7-3,10.19a48.6,48.6,0,0,1-3.21,7.71q-1.65,3-3.1,3.12a3.7,3.7,0,0,1-1.39-.1q-.52-.16-.6-1-.12-1.38,1.17-7.32T401.32,204q1.88-9.53,3.32-21.65c.19-1.23.7-2,1.54-2.21a14.27,14.27,0,0,1,2.8-.5,10.54,10.54,0,0,1,2.55,0c.67.12,1.05.66,1.14,1.63A30.7,30.7,0,0,1,412.26,186.93Z" transform="translate(-42.96 -92.27)"/><path class="cls-3" d="M238.45,223.58a20.82,20.82,0,0,0-2.71-3.34q-3.6-3.57-7.45-3.23a12,12,0,0,0-6,2.64,33.4,33.4,0,0,0-6.15,6.15,54.53,54.53,0,0,0-5.32,8.23,44.72,44.72,0,0,0-3.62,9,23.45,23.45,0,0,0-.91,8.28,8,8,0,0,0,2.22,4.64,15.25,15.25,0,0,0,4.84,3.59,10.42,10.42,0,0,0,5.41,1.12q6.51-.57,13.29-10.92a20.8,20.8,0,0,0,.45,2.64,31,31,0,0,0,.88,3.2,8.1,8.1,0,0,0,1.35,2.61,2.11,2.11,0,0,0,1.85.91c.86-.07,1.31-.83,1.36-2.27q.38-7.54,1-12.74a42.3,42.3,0,0,0,.34-8.36,3.81,3.81,0,0,0-1.22-2.14,11.41,11.41,0,0,0,1.38-3.49,11.82,11.82,0,0,0,.19-3.29A7.3,7.3,0,0,0,238.45,223.58Zm-6.21,9.91a29.71,29.71,0,0,1-3.29,9.83,27.88,27.88,0,0,1-5.45,7.25,10,10,0,0,1-5.73,3,4.56,4.56,0,0,1-2.91-.65,2.84,2.84,0,0,1-1.41-2.25,15.91,15.91,0,0,1,.73-5.5,41.22,41.22,0,0,1,2.68-6.89,55,55,0,0,1,3.9-6.77,27.15,27.15,0,0,1,4.46-5.22,7.92,7.92,0,0,1,4.47-2.25q3.17-.28,3.86,7.69A2.13,2.13,0,0,0,232.24,233.49Z" transform="translate(-42.96 -92.27)"/><path class="cls-3" d="M280.1,228.49c0-.26,0-.56,0-.91a23.29,23.29,0,0,0-1.68-6.8,14.66,14.66,0,0,0-3.76-5.5,7.41,7.41,0,0,0-5.81-1.82,12.4,12.4,0,0,0-6.66,2.87,29.93,29.93,0,0,0-6,6.52,52.13,52.13,0,0,0-4.7,8.4,48.94,48.94,0,0,0-3,8.54,22.53,22.53,0,0,0-.73,6.93,11.5,11.5,0,0,0,1.9,5.45,11.73,11.73,0,0,0,4.14,3.82,9.06,9.06,0,0,0,5.32,1.13c2.79-.24,6.28-2.21,10.44-5.92-.19,1.11-.41,2.57-.65,4.38s-.55,3.73-.92,5.77a42.46,42.46,0,0,1-1.47,5.83,14.4,14.4,0,0,1-2.41,4.57,5.24,5.24,0,0,1-3.71,2,6.1,6.1,0,0,1-3.83-.92,18.51,18.51,0,0,1-3.29-2.56c-1-1-1.89-1.85-2.65-2.62s-1.39-1.13-1.91-1.08-1.17.56-1.63,1.52a5.3,5.3,0,0,0-.58,2.82,7.15,7.15,0,0,0,2.32,4.28,14.87,14.87,0,0,0,5.52,3.4,16.91,16.91,0,0,0,7.42.91,10.2,10.2,0,0,0,6.37-2.67q2.43-2.34,4.05-7.48a107.18,107.18,0,0,0,3.09-14,121.4,121.4,0,0,1,2.73-12.23q1.4-4.78,2.37-7.46a10.33,10.33,0,0,0,.87-3.79,5,5,0,0,0-1.27-2.74A3.69,3.69,0,0,0,280.1,228.49Zm-7.61,9.68a32.23,32.23,0,0,1-4.37,5.87,26,26,0,0,1-5,4.19,10.61,10.61,0,0,1-4.68,1.79,3.35,3.35,0,0,1-2.48-.69,3.13,3.13,0,0,1-1.15-2.27,19.13,19.13,0,0,1,.6-6.06,39.19,39.19,0,0,1,2.41-6.9,46.07,46.07,0,0,1,3.62-6.53,24.66,24.66,0,0,1,4.23-4.94,7.63,7.63,0,0,1,4.18-2.1,2.48,2.48,0,0,1,2.34,1.09,9.7,9.7,0,0,1,1.39,3.12c.34,1.26.64,2.5.89,3.72a19.31,19.31,0,0,0,.82,3A27.14,27.14,0,0,1,272.49,238.17Z" transform="translate(-42.96 -92.27)"/><path class="cls-3" d="M309.17,209.93a12.12,12.12,0,0,0-6,2.64,33.1,33.1,0,0,0-6.15,6.15,54.68,54.68,0,0,0-5.33,8.24,44.35,44.35,0,0,0-3.61,9,23.52,23.52,0,0,0-.92,8.28,8,8,0,0,0,2.22,4.64,15.14,15.14,0,0,0,4.85,3.59,10.38,10.38,0,0,0,5.4,1.12q6.51-.56,13.29-10.91a21.4,21.4,0,0,0,.45,2.64c.24,1.07.53,2.14.88,3.2a8.45,8.45,0,0,0,1.35,2.6,2.12,2.12,0,0,0,1.85.92c.86-.08,1.31-.84,1.36-2.28q.38-7.55,1-12.73a42.51,42.51,0,0,0,.35-8.37,3.82,3.82,0,0,0-1.23-2.13,11.61,11.61,0,0,0,1.38-3.49,11.87,11.87,0,0,0,.19-3.3,7.26,7.26,0,0,0-1.15-3.22,19.92,19.92,0,0,0-2.71-3.35C314.22,210.78,311.74,209.71,309.17,209.93Zm3.94,16.49a29.78,29.78,0,0,1-3.28,9.83,28.33,28.33,0,0,1-5.45,7.25,10.07,10.07,0,0,1-5.74,3,4.56,4.56,0,0,1-2.91-.65,2.81,2.81,0,0,1-1.4-2.25,15.7,15.7,0,0,1,.73-5.5,41,41,0,0,1,2.67-6.88,54.32,54.32,0,0,1,3.9-6.77,27.28,27.28,0,0,1,4.46-5.23,8,8,0,0,1,4.47-2.25q3.17-.27,3.87,7.69A2.12,2.12,0,0,0,313.11,226.42Z" transform="translate(-42.96 -92.27)"/><path class="cls-3" d="M342.53,191.6c-1-1-1.72-1.53-2.29-1.48a3.86,3.86,0,0,0-2.7,1.79,4.87,4.87,0,0,0-1.08,3.37,4.8,4.8,0,0,0,1.43,2.6,13.26,13.26,0,0,0,3.12,2.53,5.39,5.39,0,0,0,3.14.93,2.4,2.4,0,0,0,1.57-.82,2,2,0,0,0,.64-1.61,9.72,9.72,0,0,0-1.27-3.65A18.42,18.42,0,0,0,342.53,191.6Z" transform="translate(-42.96 -92.27)"/><path class="cls-3" d="M341.23,210.36a8.12,8.12,0,0,0-1.91-2.12,3.13,3.13,0,0,0-2.23-.75c-.85.07-1.56,1.54-2.11,4.41-.31,1.76-.68,4-1.13,6.88l-1.41,9.05c-.49,3.21-.95,6.26-1.36,9.15s-.74,5.31-1,7.29-.37,3.09-.35,3.31a3.35,3.35,0,0,0,1,2.2,2.63,2.63,0,0,0,2.14.8q2.24-.2,3.31-4.6,1.75-7.57,3.16-14.22c.94-4.43,1.66-8.27,2.19-11.54a33.58,33.58,0,0,0,.57-7.3A5.73,5.73,0,0,0,341.23,210.36Z" transform="translate(-42.96 -92.27)"/><path class="cls-3" d="M387.24,220.15a37,37,0,0,0,.16-6,10.46,10.46,0,0,0-1.82-5,13.94,13.94,0,0,0-3.83-3.86,6.93,6.93,0,0,0-4.48-1.29,4.85,4.85,0,0,0-1.76.59,10,10,0,0,0-2.45,2.07,34.37,34.37,0,0,0-3.51,4.75c-1.37,2.14-3,5-4.91,8.55S360.53,228,358,233.45l-.26,0c.63-2.7,1.17-5.56,1.63-8.56s.79-5.75,1-8.25a35.63,35.63,0,0,0,.18-5.28,5.39,5.39,0,0,0-1.16-2.88,8.59,8.59,0,0,0-2.39-2.16,4.39,4.39,0,0,0-2.65-.72q-1.8.15-1.25,6.41a64.2,64.2,0,0,1,0,11.09,91.37,91.37,0,0,1-1.38,9.92q-.9,4.48-1.6,7.35a17.33,17.33,0,0,0-.65,3.47,4.61,4.61,0,0,0,1,2.16,8.84,8.84,0,0,0,2,2,3.17,3.17,0,0,0,2,.73,2.3,2.3,0,0,0,1.35-.85,12.44,12.44,0,0,0,1.71-2.61q4.8-9.31,8-15.37c2.12-4,3.86-7.23,5.21-9.57s2.43-4.07,3.26-5.2a8.33,8.33,0,0,1,2.05-2.21,3.49,3.49,0,0,1,1.59-.57c.85-.08,1.52.48,2,1.68a11.75,11.75,0,0,1,.85,3.33,25,25,0,0,1-.44,6.78c-.47,2.51-1.06,5.05-1.75,7.62s-1.3,4.94-1.79,7.15a18.08,18.08,0,0,0-.57,5.35c.15,1.72.85,2.52,2.11,2.41s2.31-1.05,3.33-2.84a30.54,30.54,0,0,0,2.73-6.8,79.32,79.32,0,0,0,2-8.59C386.63,225.51,387,222.73,387.24,220.15Z" transform="translate(-42.96 -92.27)"/><path class="cls-3" d="M399.16,236.07a6.27,6.27,0,0,0-2.78-.19,8.73,8.73,0,0,0-3.34.81,2.92,2.92,0,0,0-1.41,2.11,21.56,21.56,0,0,1-.47,3,6.26,6.26,0,0,0-.21,2.09,2,2,0,0,0,.46,1.25c.25.27.83.36,1.75.28a7.7,7.7,0,0,0,3.43-1.16,8,8,0,0,0,2.66-2.65,5.81,5.81,0,0,0,.85-3.7C400,236.92,399.7,236.31,399.16,236.07Z" transform="translate(-42.96 -92.27)"/><path class="cls-3" d="M411.53,179.65a10.54,10.54,0,0,0-2.55,0,14.27,14.27,0,0,0-2.8.5c-.84.25-1.35,1-1.54,2.21q-1.44,12.12-3.32,21.65t-3.18,15.47q-1.29,5.94-1.17,7.32.07.85.6,1a3.7,3.7,0,0,0,1.39.1q1.46-.13,3.1-3.12a48.6,48.6,0,0,0,3.21-7.71q1.56-4.71,3-10.19t2.43-10.7c.67-3.48,1.2-6.57,1.57-9.24a30.7,30.7,0,0,0,.41-5.65C412.58,180.31,412.2,179.77,411.53,179.65Z" transform="translate(-42.96 -92.27)"/></svg>