<?xml version="1.0" encoding="utf-8"?>
<!-- Generator: Adobe Illustrator 26.0.0, SVG Export Plug-In . SVG Version: 6.00 Build 0)  -->
<svg version="1.1" id="Layer_1" xmlns="http://www.w3.org/2000/svg" xmlns:xlink="http://www.w3.org/1999/xlink" x="0px" y="0px"
	 viewBox="0 0 48 48" style="enable-background:new 0 0 48 48;" xml:space="preserve">
<style type="text/css">
	.st0{fill:#FCF8F3;}
</style>
<path class="st0" d="M24.3,37.9c0.6,0,1.2-0.1,1.6-0.6c0.5-0.5,0.6-1.1,0.6-1.7S26.4,34.5,26,34c-0.4-0.4-1-0.6-1.6-0.6
	s-1.2,0.2-1.6,0.6s-0.6,1.1-0.6,1.7s0.1,1.2,0.6,1.7C23.1,37.8,23.6,37.9,24.3,37.9z M22.2,29.2h3.6c0-1.1,0.1-1.9,0.4-2.8
	c0.3-0.9,1.1-1.8,2.4-3c1.2-1.1,2.1-2.1,2.7-3c0.4-1.1,0.8-2.1,0.8-3.3c0-2.1-0.8-3.7-2.1-5.1c-1.3-1.3-3.1-2-5.5-2
	c-2,0-3.8,0.5-5.2,1.5s-2.6,2.4-3.3,4.1l3.2,1.2c0.4-1.1,1.1-1.9,1.9-2.6c0.9-0.6,1.9-0.9,3.1-0.9c1.4,0,2.4,0.3,3.3,1.1
	c0.9,0.8,1.2,1.7,1.2,2.8c0,0.9-0.3,1.7-0.8,2.6c-0.4,0.8-1.3,1.6-2.2,2.4c-1.2,1.1-2.1,2.1-2.7,3.1C22.5,26.2,22.2,27.6,22.2,29.2z
	 M24,48c-3.3,0-6.4-0.6-9.3-1.9c-2.8-1.2-5.4-3-7.7-5.1c-2.2-2.2-3.9-4.8-5.1-7.6S0,27.3,0,24s0.6-6.4,2-9.3S5,9.3,7.1,7
	s4.8-3.9,7.7-5.1S20.7,0,24,0s6.4,0.6,9.3,2c2.8,1.4,5.4,3,7.6,5.1s3.9,4.7,5.1,7.7c1.2,2.8,1.9,6,1.9,9.3s-0.6,6.4-1.9,9.3
	c-1.2,2.8-3,5.4-5.1,7.6c-2.1,2.2-4.6,3.9-7.6,5.1C30.4,47.4,27.3,48,24,48z M24,44.4c5.7,0,10.5-2,14.4-6s6-8.8,6-14.4
	c0-5.7-2-10.5-6-14.4c-3.9-3.9-8.8-6-14.4-6c-5.7,0-10.5,2-14.4,6s-6,8.9-6,14.4c0,5.7,2,10.5,6,14.4C13.5,42.4,18.3,44.4,24,44.4z"
	/>
</svg>
