<svg xmlns="http://www.w3.org/2000/svg" viewBox="0 0 291 175.38"><defs><style>.cls-1{fill:#fcf8f3;stroke:#6e7da2;stroke-miterlimit:10;stroke-width:2px;}.cls-2{fill:#db996c;}</style></defs><g id="Layer_2" data-name="Layer 2"><g id="Layer_3" data-name="Layer 3"><path class="cls-1" d="M290,6V124a5,5,0,0,1-5,5H171.12L145.5,173.38,119.87,129H6a5,5,0,0,1-5-5V6A5,5,0,0,1,6,1H285A5,5,0,0,1,290,6Z"/><path class="cls-2" d="M46.13,97.73a20.45,20.45,0,0,1-9-1,17.87,17.87,0,0,1-6.45-3.9,7.78,7.78,0,0,1-2.64-4.66c-.14-1.56.26-2.37,1.19-2.46a3.51,3.51,0,0,1,2.32.94q1.3,1,3.06,2.31a19.59,19.59,0,0,0,3.95,2.24,10.28,10.28,0,0,0,5,.7,17.31,17.31,0,0,0,6.68-1.92,15.28,15.28,0,0,0,4.83-3.79,6,6,0,0,0,1.62-4.37,7.17,7.17,0,0,0-2.19-4,47,47,0,0,0-4.9-4.47c-1.91-1.53-3.83-3-5.76-4.58a44.69,44.69,0,0,1-4.93-4.46,7,7,0,0,1-2.19-4,10.69,10.69,0,0,1,1.61-6.64A20.35,20.35,0,0,1,43.54,48a31.68,31.68,0,0,1,7.12-4.07A25.28,25.28,0,0,1,58,42,5.34,5.34,0,0,1,62,43.19a4.28,4.28,0,0,1,1.82,3c.06.62-.55,1.15-1.82,1.61s-2.82.93-4.68,1.46a30.79,30.79,0,0,0-5.56,2.21,41.74,41.74,0,0,0-6.46,3.66c-1.39,1-2,2.07-2,3.11q.12,1.24,2.1,2.94T50.31,65q2.92,2.18,5.93,4.69a30.21,30.21,0,0,1,5.09,5.39,11.83,11.83,0,0,1,2.37,6,12.1,12.1,0,0,1-2,7.85,18.67,18.67,0,0,1-6.52,6A21.82,21.82,0,0,1,46.13,97.73Z"/><path class="cls-2" d="M86.93,94.32a2.76,2.76,0,0,1-1.78-.67,7.9,7.9,0,0,1-1.81-1.91,4.94,4.94,0,0,1-.91-2.35,26.31,26.31,0,0,1,.3-5.55q.47-3.53,1.29-8.09c.54-3,1.1-6.27,1.7-9.67s1.08-6.79,1.49-10.19a80.73,80.73,0,0,0,.61-9.64q-3.81.41-7.2,1c-2.26.38-4.28.65-6,.8a2.7,2.7,0,0,1-1.77-.63,6.56,6.56,0,0,1-1.72-1.76,4.39,4.39,0,0,1-.81-2.09,1.08,1.08,0,0,1,.24-.76A3.11,3.11,0,0,1,71.94,42a26,26,0,0,1,3.7-.76q2.55-.37,7-.89t11.49-1.12c.88-.08,2.07-.13,3.55-.15s3.07,0,4.75.13a42.52,42.52,0,0,1,4.83.59,13,13,0,0,1,3.79,1.24,2.69,2.69,0,0,1,1.59,2.13c.09,1-.72,1.55-2.43,1.7a69.37,69.37,0,0,1-7.33.37c-2.82,0-5.7.12-8.66.32q-.12,2.28-.58,6.32c-.32,2.69-.68,5.67-1.1,8.94s-.85,6.56-1.29,9.86-.87,6.37-1.27,9.2-.74,5.15-1,7-.42,2.86-.5,3.13Q87.79,94.25,86.93,94.32Z"/><path class="cls-2" d="M119,92.22a3.14,3.14,0,0,1-1.81-.55A6.31,6.31,0,0,1,115.37,90a4.3,4.3,0,0,1-.9-2.15q-.06-.78,3.47-11.42a5,5,0,0,1-3.32-.77,3.17,3.17,0,0,1-1.5-2.41q-.14-1.56,7.34-4.64.2-.48.81-2.46t1.5-4.79q.89-2.82,1.86-6c.64-2.15,1.27-4.21,1.88-6.2l1.62-5.27c.46-1.52.8-2.61,1-3.25a8.32,8.32,0,0,1,2.68-3.88,7.25,7.25,0,0,1,4-1.88c.67-.06,1.39.56,2.16,1.85a32.12,32.12,0,0,1,2.32,5c.78,2.07,1.51,4.31,2.19,6.7s1.29,4.7,1.82,6.93.94,4.08,1.23,5.57c.72-.17,1.39-.35,2-.53a8.42,8.42,0,0,1,1.73-.35,4.29,4.29,0,0,1,2.7.43,2,2,0,0,1,1,1.59q.13,1.49-6.54,4,.47,2.63.86,5.76t.72,6c.21,1.89.38,3.48.49,4.78a30.09,30.09,0,0,1,.15,4.76,3,3,0,0,1-.66,1.94,2.35,2.35,0,0,1-1.36.51,2.15,2.15,0,0,1-2.06-1.15,9.75,9.75,0,0,1-1.24-3c-.28-1.12-.51-2.09-.68-2.91q-.65-3.71-1.23-7.33t-1.22-7.18c-2.58.9-5.05,1.79-7.4,2.64s-4.79,1.77-7.32,2.72Q120.18,92.12,119,92.22Zm8.74-26.29q2.64-1,5.51-1.85t5.92-1.66q-1.27-6.62-2.41-11.53c-.76-3.27-1.44-6-2.05-8.2q-1.36,4.19-3.12,10T127.75,65.93Z"/><path class="cls-2" d="M166,87.64a2.4,2.4,0,0,1-1.4-.7,9.1,9.1,0,0,1-1.73-1.89,4.68,4.68,0,0,1-.9-2.3,20.23,20.23,0,0,1,.41-4.66c.36-2.12.84-4.6,1.42-7.45s1.18-5.89,1.79-9.16,1.09-6.54,1.48-9.83a80.4,80.4,0,0,0,.59-9.41,5.53,5.53,0,0,1-2-1.79,4.81,4.81,0,0,1-1-2.26c-.07-.78.68-1.68,2.23-2.7a25.35,25.35,0,0,1,6.14-2.77,37.34,37.34,0,0,1,8.16-1.62,21.65,21.65,0,0,1,7.93.72,13.93,13.93,0,0,1,6.14,3.5A9.57,9.57,0,0,1,198,41.46a13.73,13.73,0,0,1-1.43,7.37,15.76,15.76,0,0,1-4.78,5.78q-4,2.93-6.45,4.59t-3.85,2.57a17,17,0,0,0-1.84,1.34,1,1,0,0,0-.43.82,4.93,4.93,0,0,0,.61,1.63,13,13,0,0,0,2.69,3,67.72,67.72,0,0,0,6.79,5.12c3.17,2.18,5.5,3.83,7,5a21.89,21.89,0,0,1,3,2.48,2.79,2.79,0,0,1,.76,1.58c.11,1.24-.69,1.94-2.4,2.09A10,10,0,0,1,193,83.67a39.13,39.13,0,0,1-6.1-3.5,65.38,65.38,0,0,1-6.3-4.92,55.68,55.68,0,0,1-5.37-5.41A20.69,20.69,0,0,1,171.9,65c-.45,2.08-.91,4.4-1.39,7s-1,5-1.5,7.41-1,4.33-1.56,5.89S166.44,87.6,166,87.64Zm6.72-26.9A34.3,34.3,0,0,1,177,57.51l5-3.21a45.56,45.56,0,0,0,4.67-3.46,15.34,15.34,0,0,0,3.37-4,8.07,8.07,0,0,0,1-4.78q-.42-4.83-8.81-4.09a25.24,25.24,0,0,0-8.69,2.72,7.94,7.94,0,0,1,1,3Q174.95,48.8,172.7,60.74Z"/><path class="cls-2" d="M221.12,82.58a2.76,2.76,0,0,1-1.78-.67A7.9,7.9,0,0,1,217.53,80a4.94,4.94,0,0,1-.91-2.35,26.29,26.29,0,0,1,.3-5.55q.47-3.52,1.29-8.1t1.69-9.66q.89-5.09,1.5-10.19A80.77,80.77,0,0,0,222,34.5q-3.81.42-7.2,1c-2.26.38-4.28.65-6,.8a2.76,2.76,0,0,1-1.77-.63,6.45,6.45,0,0,1-1.72-1.77,4.42,4.42,0,0,1-.81-2.08,1.08,1.08,0,0,1,.24-.76,3,3,0,0,1,1.42-.75,26,26,0,0,1,3.7-.76q2.55-.37,7-.89t11.49-1.12c.88-.08,2.07-.13,3.55-.16s3.07,0,4.75.14a42.52,42.52,0,0,1,4.83.59,13,13,0,0,1,3.79,1.24,2.67,2.67,0,0,1,1.59,2.13c.09,1-.72,1.55-2.43,1.7a72.17,72.17,0,0,1-7.33.37c-2.82,0-5.7.12-8.66.32q-.12,2.28-.58,6.32c-.32,2.69-.68,5.67-1.1,8.94s-.85,6.56-1.29,9.86-.87,6.37-1.27,9.2-.74,5.15-1,7-.42,2.87-.5,3.14Q222,82.51,221.12,82.58Z"/><path class="cls-2" d="M245.24,80.78c-.83.07-1.36,0-1.59-.25a1.81,1.81,0,0,1-.41-1.14,5.81,5.81,0,0,1,.18-1.89,18.69,18.69,0,0,0,.43-2.7,2.65,2.65,0,0,1,1.28-1.92,8,8,0,0,1,3-.73,5.5,5.5,0,0,1,2.52.17c.49.22.77.77.85,1.65a5.27,5.27,0,0,1-.76,3.35,7.31,7.31,0,0,1-2.41,2.41A7.19,7.19,0,0,1,245.24,80.78ZM250.5,64.9a3.44,3.44,0,0,1-1.26-.09c-.32-.1-.5-.41-.55-.93a33.08,33.08,0,0,1,1.07-6.63q1.17-5.39,2.88-14t3-19.65a2.14,2.14,0,0,1,1.39-2,13.25,13.25,0,0,1,2.54-.45,9.1,9.1,0,0,1,2.31,0c.61.1,1,.59,1,1.47a25.93,25.93,0,0,1-.37,5.13q-.51,3.64-1.42,8.38c-.61,3.16-1.35,6.4-2.2,9.71s-1.77,6.39-2.72,9.24a43.47,43.47,0,0,1-2.91,7C252.32,63.88,251.38,64.82,250.5,64.9Z"/></g></g></svg>