<svg xmlns="http://www.w3.org/2000/svg" xmlns:xlink="http://www.w3.org/1999/xlink" viewBox="0 0 104.67 107.07"><defs><style>.cls-1{fill:none;}.cls-2{isolation:isolate;}.cls-3{fill:#dc9a6d;}.cls-4{clip-path:url(#clip-path);}.cls-5{fill:#fbbca0;}.cls-6{fill:#e6e7e8;}.cls-11,.cls-6{mix-blend-mode:multiply;}.cls-7{fill:#dda78f;}.cls-8{fill:#fff;}.cls-9{fill:#3c0000;}.cls-10{fill:#14baab;}.cls-11{fill:#d1d3d4;}.cls-12{fill:#270000;}.cls-13{fill:#e2e3e4;}.cls-14{fill:#150000;}.cls-15{fill:#1e0500;}</style><clipPath id="clip-path" transform="translate(-165.05 -107.93)"><circle class="cls-1" cx="217.38" cy="160.27" r="52.33" transform="translate(-49.65 200.65) rotate(-45)"/></clipPath></defs><g class="cls-2"><g id="Capa_1" data-name="Capa 1"><circle class="cls-3" cx="217.38" cy="160.27" r="52.33" transform="translate(-214.71 92.72) rotate(-45)"/><g class="cls-4"><rect class="cls-5" x="42.31" y="69.56" width="20.04" height="13.5"/><path class="cls-6" d="M212.22,187.26a26.78,26.78,0,0,0,9.59,2,30,30,0,0,0,5.59-.54V177.5h-20v7A16.67,16.67,0,0,0,212.22,187.26Z" transform="translate(-165.05 -107.93)"/><path class="cls-5" d="M238.31,152.49c.06-.49.88-1.29,1.23-1.56.8-.6,1.6,0,1.83.8a9.69,9.69,0,0,1,.27,2.21,9.88,9.88,0,0,1-.92,5.11,6.71,6.71,0,0,1-2.3,2.6.81.81,0,0,1-1.24-.69S238.3,152.49,238.31,152.49Z" transform="translate(-165.05 -107.93)"/><path class="cls-7" d="M238.14,153.55a2.66,2.66,0,0,1,.88-1.11c.57-.43,1.15,0,1.31.57a7.59,7.59,0,0,1,.2,1.58,7.1,7.1,0,0,1-.66,3.66,4.77,4.77,0,0,1-1.65,1.86.58.58,0,0,1-.89-.49Z" transform="translate(-165.05 -107.93)"/><path class="cls-5" d="M196,152.49a3.71,3.71,0,0,0-1.24-1.56c-.79-.6-1.59,0-1.82.8a10.29,10.29,0,0,0-.28,2.21,10,10,0,0,0,.92,5.11,6.79,6.79,0,0,0,2.3,2.6.82.82,0,0,0,1.25-.69Z" transform="translate(-165.05 -107.93)"/><path class="cls-7" d="M196.12,153.55a2.61,2.61,0,0,0-.89-1.11c-.57-.43-1.14,0-1.31.57a7.58,7.58,0,0,0-.19,1.58,7.2,7.2,0,0,0,.65,3.66,4.94,4.94,0,0,0,1.65,1.86.58.58,0,0,0,.89-.49Z" transform="translate(-165.05 -107.93)"/><path class="cls-5" d="M238.94,154.08a34.19,34.19,0,0,1-3.52,16.08,31.63,31.63,0,0,1-9.25,10.32c-2.94,2.19-6.09,4.75-9.81,4.44-3.88-.33-6.9-3.71-9.74-6.35a34.62,34.62,0,0,1-9.07-13.76,32.61,32.61,0,0,1-1.74-10.73c0-18.06,9.65-29.43,21.56-29.43S238.94,136,238.94,154.08Z" transform="translate(-165.05 -107.93)"/><path class="cls-5" d="M252.38,197.1l-25-6.53h-20l-25,6.53A21.42,21.42,0,0,0,169.53,215h95.71A21.44,21.44,0,0,0,252.38,197.1Z" transform="translate(-165.05 -107.93)"/><path class="cls-8" d="M252.38,197.1l-25-6.53h-20l-25,6.53A21.42,21.42,0,0,0,169.53,215h95.71A21.44,21.44,0,0,0,252.38,197.1Z" transform="translate(-165.05 -107.93)"/><path class="cls-9" d="M252.38,197.1l-18.48-4.83L217.38,215l-16.33-22.75-18.66,4.88A21.42,21.42,0,0,0,169.53,215h95.71A21.44,21.44,0,0,0,252.38,197.1Z" transform="translate(-165.05 -107.93)"/><polygon class="cls-10" points="50.14 95.66 45.54 107.03 58.62 107.03 54.13 95.66 50.14 95.66"/><polygon class="cls-10" points="52.03 82.86 46.17 90.72 50.24 95.69 52.24 95.66 54.23 95.63 58.14 90.53 52.03 82.86"/><path class="cls-11" d="M221,197.62c-.75,1.49-2.15,3.17-4,2.76a3.25,3.25,0,0,1-2.4-4.16c.44-1.84,1.62-3.36,2.28-5.1l-5.62,7.54,4.08,5,4-.07,3.91-5.1-1.65-2.07Q221.3,197,221,197.62Z" transform="translate(-165.05 -107.93)"/><polygon class="cls-12" points="52.33 107.03 36 84.29 22.94 87.71 39.63 99.46 35.34 101.35 43.06 107.03 52.33 107.03"/><polygon class="cls-12" points="52.33 107.06 68.67 84.32 81.73 87.74 65.04 99.49 69.33 101.38 61.61 107.06 52.33 107.06"/><polygon class="cls-13" points="32.48 83.12 42.28 78.52 52.26 82.69 62.25 78.52 72.72 83.12 57.92 93.03 52.26 84.93 46.17 93.03 32.48 83.12"/><path class="cls-14" d="M230,177.21s5.41-5.12,6.61-9.64c0,0-6.39,5.77-8.62,5.16Z" transform="translate(-165.05 -107.93)"/><path class="cls-14" d="M206.26,178.75s-6.27-5.38-8-12.12c0,0,7.16,8.27,9.39,7.65Z" transform="translate(-165.05 -107.93)"/><path class="cls-15" d="M221.2,169.88a11.28,11.28,0,0,1,5.48,1.27c3.11,1.47,3.9,5.46,3.9,5.46a27.12,27.12,0,0,1-4.75,4c-5.91,4.9-8.62,4.28-8.62,4.28a9.37,9.37,0,0,1-5.72-2.1L206,178.51a7.57,7.57,0,0,1,3.6-7.36c2.58-1.25,3.05-1.08,3.05-1.08s3.86-.45,4.8,1.08c0,0,1-1.27,3.6-1.27" transform="translate(-165.05 -107.93)"/><path class="cls-5" d="M217.9,173.93a8,8,0,0,0-6,.09s5.36,5.69,11.45.08C223.39,174.1,220.13,172.57,217.9,173.93Z" transform="translate(-165.05 -107.93)"/><path class="cls-14" d="M239.13,127.44a10.53,10.53,0,0,0,4.33-9,12,12,0,0,1-7,3.51c4.29-2.57,2.16-7.93,2.16-7.93-1.34,3-7.3,4.71-7.3,4.71,2.89-1.93,1.09-6.32,1.09-6.32-2,3.43-8.06,4.93-8.06,4.93,4-2.25,4.39-5.46,4.39-5.46-3.53,3.1-13.18,4.6-13.18,4.6s-10.62,1-13.26,9.8c-7.77,1.12-7.84,14.26-7.31,21.35h0l.5,8.58h1.72a36.63,36.63,0,0,1,0-9.68h0a76,76,0,0,1,2.56-8c1.85-4,4.72-5.24,6.55-5.6l1.74-.13c7.61-1.11,9.85,4.29,9.85,4.29,1.18-3.11,5.16-3.86,5.16-3.86,11.57-1.54,13.23,7.61,13.23,7.61l1.31,5.83a40.09,40.09,0,0,1-.1,9.57h1.72l.5-8.58a5.43,5.43,0,0,0,0-.71C240.62,142.16,241.4,134.36,239.13,127.44Z" transform="translate(-165.05 -107.93)"/></g></g></g></svg>