<?xml version="1.0" encoding="utf-8"?>
<!-- Generator: Adobe Illustrator 26.0.0, SVG Export Plug-In . SVG Version: 6.00 Build 0)  -->
<svg version="1.1" id="Layer_1" xmlns="http://www.w3.org/2000/svg" xmlns:xlink="http://www.w3.org/1999/xlink" x="0px" y="0px"
	 viewBox="0 0 48 48" style="enable-background:new 0 0 48 48;" xml:space="preserve">
<style type="text/css">
	.st0{fill:#FF0000;}
</style>
<path class="st0" d="M29.4,32.8c-0.7,0-1.3,0-2,0.1c-0.6,0-1.2,0-1.7,0h-1.6c-1.8,0-3.5,0-5.1-0.1c-1.3-0.1-2.7-0.1-4-0.2
	s-2.3-0.2-2.8-0.4c-0.7-0.2-1.2-0.5-1.7-1c-0.5-0.5-0.8-1.1-1-1.7c-0.2-0.6-0.3-1.3-0.4-2.1c-0.1-0.8-0.2-1.6-0.2-2.4
	C9,24.1,9,23.2,9,22.2s0-1.9,0.1-2.8c0.1-0.8,0.1-1.6,0.2-2.4s0.2-1.5,0.4-2.1c0.2-0.7,0.5-1.2,1-1.7c0.5-0.5,1.1-0.8,1.7-1
	c0.6-0.2,1.5-0.3,2.8-0.4c1.3-0.1,2.6-0.2,4-0.2c1.6-0.1,3.3-0.1,5.1-0.1c1.8,0,3.5,0,5.1,0.1c1.3,0.1,2.7,0.1,4,0.2
	c1.3,0.1,2.3,0.2,2.8,0.4c0.7,0.2,1.2,0.5,1.7,1c0.5,0.5,0.8,1.1,1,1.7c0.2,0.6,0.3,1.3,0.4,2.1c0.1,0.8,0.2,1.6,0.2,2.4
	c0.1,0.9,0.1,1.8,0.1,2.8v0.6c-0.5-0.2-1-0.4-1.5-0.5c-0.5-0.1-1-0.2-1.6-0.2c-2.1,0-3.9,0.7-5.4,2.2c-1.5,1.5-2.2,3.3-2.2,5.4
	c0,0.5,0.1,1,0.2,1.5C29.1,31.9,29.2,32.4,29.4,32.8z M21.2,26.8l7.9-4.6l-7.9-4.6V26.8z M34.9,34.4v-3h-3v-3h3v-3h3v3h3v3h-3v3
	H34.9z"/>
</svg>
